{
  "accessors": [
    {
      "bufferView": 2,
      "componentType": 5126,
      "count": 789,
      "max": [
        1.2595523595809937,
        1.0,
        1.2595524787902832
      ],
      "min": [
        -1.2595525979995728,
        -1.0518275499343872,
        -1.2595529556274414
      ],
      "type": "VEC3"
    },
    {
      "bufferView": 2,
      "byteOffset": 9468,
      "componentType": 5126,
      "count": 789,
      "max": [
        1.0,
        1.0,
        1.0
      ],
      "min": [
        -1.0,
        -1.0,
        -1.0
      ],
      "type": "VEC3"
    },
    {
      "bufferView": 1,
      "componentType": 5126,
      "count": 789,
      "max": [
        0.65625,
        0.9923526048660278
      ],
      "min": [
        -0.0,
        -7.450580596923828e-08
      ],
      "type": "VEC2"
    },
    {
      "bufferView": 0,
      "componentType": 5125,
      "count": 2718,
      "type": "SCALAR"
    },
    {
      "bufferView": 2,
      "byteOffset": 18936,
      "componentType": 5126,
      "count": 24,
      "max": [
        0.5,
        0.5,
        0.5
      ],
      "min": [
        -0.5,
        -0.5,
        -0.5
      ],
      "type": "VEC3"
    },
    {
      "bufferView": 2,
      "byteOffset": 19224,
      "componentType": 5126,
      "count": 24,
      "max": [
        1.0,
        1.0,
        1.0
      ],
      "min": [
        -1.0,
        -1.0,
        -1.0
      ],
      "type": "VEC3"
    },
    {
      "bufferView": 1,
      "byteOffset": 6312,
      "componentType": 5126,
      "count": 24,
      "max": [
        0.875,
        1.0
      ],
      "min": [
        0.125,
        0.0
      ],
      "type": "VEC2"
    },
    {
      "bufferView": 0,
      "byteOffset": 10872,
      "componentType": 5125,
      "count": 36,
      "type": "SCALAR"
    },
    {
      "bufferView": 2,
      "byteOffset": 19512,
      "componentType": 5126,
      "count": 70,
      "max": [
        3.221605062484741,
        0.7264010310173035,
        0.5
      ],
      "min": [
        -1.3837957382202148,
        -0.7396101355552673,
        -0.5
      ],
      "type": "VEC3"
    },
    {
      "bufferView": 2,
      "byteOffset": 20352,
      "componentType": 5126,
      "count": 70,
      "max": [
        1.0,
        0.9819916486740112,
        0.9984312653541565
      ],
      "min": [
        -1.0,
        -0.9810758829116821,
        -1.0
      ],
      "type": "VEC3"
    },
    {
      "bufferView": 1,
      "byteOffset": 6504,
      "componentType": 5126,
      "count": 70,
      "max": [
        0.875,
        1.0
      ],
      "min": [
        0.125,
        0.0
      ],
      "type": "VEC2"
    },
    {
      "bufferView": 0,
      "byteOffset": 11016,
      "componentType": 5125,
      "count": 132,
      "type": "SCALAR"
    },
    {
      "bufferView": 2,
      "byteOffset": 21192,
      "componentType": 5126,
      "count": 24,
      "max": [
        -12.365914344787598,
        2.684060573577881,
        -0.26613324880599976
      ],
      "min": [
        -24.919509887695313,
        1.5724129676818848,
        -3.0615015029907227
      ],
      "type": "VEC3"
    },
    {
      "bufferView": 2,
      "byteOffset": 21480,
      "componentType": 5126,
      "count": 24,
      "max": [
        0.9993087649345398,
        0.9830294847488403,
        0.975557267665863
      ],
      "min": [
        -0.690726637840271,
        -0.9853538870811462,
        -0.9680662751197815
      ],
      "type": "VEC3"
    },
    {
      "bufferView": 1,
      "byteOffset": 7064,
      "componentType": 5126,
      "count": 24,
      "max": [
        0.875,
        1.0
      ],
      "min": [
        0.125,
        0.0
      ],
      "type": "VEC2"
    },
    {
      "bufferView": 0,
      "byteOffset": 11544,
      "componentType": 5125,
      "count": 36,
      "type": "SCALAR"
    },
    {
      "bufferView": 2,
      "byteOffset": 21768,
      "componentType": 5126,
      "count": 24,
      "max": [
        -12.365914344787598,
        4.705461025238037,
        0.9645925164222717
      ],
      "min": [
        -24.919509887695313,
        1.9395838975906372,
        -0.19637390971183777
      ],
      "type": "VEC3"
    },
    {
      "bufferView": 2,
      "byteOffset": 22056,
      "componentType": 5126,
      "count": 24,
      "max": [
        0.9993087649345398,
        0.9694214463233948,
        0.9810301661491394
      ],
      "min": [
        -0.6882551908493042,
        -0.9767900705337524,
        -0.9835034012794495
      ],
      "type": "VEC3"
    },
    {
      "bufferView": 1,
      "byteOffset": 7256,
      "componentType": 5126,
      "count": 24,
      "max": [
        0.875,
        1.0
      ],
      "min": [
        0.125,
        0.0
      ],
      "type": "VEC2"
    },
    {
      "bufferView": 0,
      "byteOffset": 11688,
      "componentType": 5125,
      "count": 36,
      "type": "SCALAR"
    },
    {
      "bufferView": 2,
      "byteOffset": 22344,
      "componentType": 5126,
      "count": 24,
      "max": [
        -12.365914344787598,
        1.6417711973190308,
        0.15123251080513
      ],
      "min": [
        -24.919509887695313,
        -1.1471521854400635,
        -0.9080333709716797
      ],
      "type": "VEC3"
    },
    {
      "bufferView": 2,
      "byteOffset": 22632,
      "componentType": 5126,
      "count": 24,
      "max": [
        0.9993087649345398,
        0.9820364713668823,
        0.9891433119773865
      ],
      "min": [
        -0.689531147480011,
        -0.9744839072227478,
        -0.9871323704719543
      ],
      "type": "VEC3"
    },
    {
      "bufferView": 1,
      "byteOffset": 7448,
      "componentType": 5126,
      "count": 24,
      "max": [
        0.875,
        1.0
      ],
      "min": [
        0.125,
        0.0
      ],
      "type": "VEC2"
    },
    {
      "bufferView": 0,
      "byteOffset": 11832,
      "componentType": 5125,
      "count": 36,
      "type": "SCALAR"
    },
    {
      "bufferView": 2,
      "byteOffset": 22920,
      "componentType": 5126,
      "count": 24,
      "max": [
        -12.365914344787598,
        2.086132764816284,
        2.888436794281006
      ],
      "min": [
        -24.919509887695313,
        0.9258536696434021,
        0.08926182985305786
      ],
      "type": "VEC3"
    },
    {
      "bufferView": 2,
      "byteOffset": 23208,
      "componentType": 5126,
      "count": 24,
      "max": [
        0.9993174076080322,
        0.9845486283302307,
        0.9714599847793579
      ],
      "min": [
        -0.6925572752952576,
        -0.9821574687957764,
        -0.9792295098304749
      ],
      "type": "VEC3"
    },
    {
      "bufferView": 1,
      "byteOffset": 7640,
      "componentType": 5126,
      "count": 24,
      "max": [
        0.875,
        1.0
      ],
      "min": [
        0.125,
        0.0
      ],
      "type": "VEC2"
    },
    {
      "bufferView": 0,
      "byteOffset": 11976,
      "componentType": 5125,
      "count": 36,
      "type": "SCALAR"
    },
    {
      "bufferView": 2,
      "byteOffset": 23496,
      "componentType": 5126,
      "count": 84,
      "max": [
        1.0,
        1.0,
        1.0000001192092896
      ],
      "min": [
        -1.000000238418579,
        -1.0,
        -1.0000004768371582
      ],
      "type": "VEC3"
    },
    {
      "bufferView": 2,
      "byteOffset": 24504,
      "componentType": 5126,
      "count": 84,
      "max": [
        1.0,
        1.0,
        1.0
      ],
      "min": [
        -1.0,
        -1.0,
        -1.0
      ],
      "type": "VEC3"
    },
    {
      "bufferView": 1,
      "byteOffset": 7832,
      "componentType": 5126,
      "count": 84,
      "max": [
        0.65625,
        1.0
      ],
      "min": [
        0.3437499701976776,
        -7.450580596923828e-08
      ],
      "type": "VEC2"
    },
    {
      "bufferView": 0,
      "byteOffset": 12120,
      "componentType": 5125,
      "count": 240,
      "type": "SCALAR"
    }
  ],
  "asset": {
    "extras": {
      "author": "Gwappa (https://sketchfab.com/Gwappa)",
      "license": "CC-BY-4.0 (http://creativecommons.org/licenses/by/4.0/)",
      "source": "https://sketchfab.com/3d-models/arrow-c46f8feb96044a95967feee111488e03",
      "title": "Arrow"
    },
    "generator": "Sketchfab-12.68.0",
    "version": "2.0"
  },
  "bufferViews": [
    {
      "buffer": 0,
      "byteLength": 13080,
      "name": "floatBufferViews",
      "target": 34963
    },
    {
      "buffer": 0,
      "byteLength": 8504,
      "byteOffset": 13080,
      "byteStride": 8,
      "name": "floatBufferViews",
      "target": 34962
    },
    {
      "buffer": 0,
      "byteLength": 25512,
      "byteOffset": 21584,
      "byteStride": 12,
      "name": "floatBufferViews",
      "target": 34962
    }
  ],
  "buffers": [
    {
      "byteLength": 47096,
      "uri": "scene.bin"
    }
  ],
  "extensionsRequired": [
    "KHR_materials_pbrSpecularGlossiness"
  ],
  "extensionsUsed": [
    "KHR_materials_pbrSpecularGlossiness"
  ],
  "images": [
    {
      "uri": "textures/blinn1_diffuse.png"
    },
    {
      "uri": "textures/blinn2_diffuse.png"
    },
    {
      "uri": "textures/blinn2_specularGlossiness.png"
    }
  ],
  "materials": [
    {
      "doubleSided": true,
      "extensions": {
        "KHR_materials_pbrSpecularGlossiness": {
          "diffuseFactor": [
            0.32941455873246805,
            0.32941455873246805,
            0.32941455873246805,
            1.0
          ],
          "diffuseTexture": {
            "index": 0
          },
          "glossinessFactor": 0.07925161837505172,
          "specularFactor": [
            0.0,
            0.0,
            0.0
          ]
        }
      },
      "name": "blinn1"
    },
    {
      "doubleSided": true,
      "extensions": {
        "KHR_materials_pbrSpecularGlossiness": {
          "diffuseFactor": [
            0.11091757520471289,
            0.11091757520471289,
            0.11091757520471289,
            1.0
          ],
          "diffuseTexture": {
            "index": 1
          },
          "glossinessFactor": 1.0,
          "specularFactor": [
            0.5964664274886133,
            0.5964664274886133,
            0.5964664274886133
          ],
          "specularGlossinessTexture": {
            "index": 2
          }
        }
      },
      "name": "blinn2"
    },
    {
      "doubleSided": true,
      "extensions": {
        "KHR_materials_pbrSpecularGlossiness": {
          "diffuseFactor": [
            0.1155971864115343,
            0.01597042261871958,
            0.01597042261871958,
            1.0
          ],
          "glossinessFactor": 1.0,
          "specularFactor": [
            0.0,
            0.0,
            0.0
          ],
          "specularGlossinessTexture": {
            "index": 2
          }
        }
      },
      "name": "blinn3"
    }
  ],
  "meshes": [
    {
      "name": "pCylinder1_blinn1_0",
      "primitives": [
        {
          "attributes": {
            "NORMAL": 1,
            "POSITION": 0,
            "TEXCOORD_0": 2
          },
          "indices": 3,
          "material": 0,
          "mode": 4
        }
      ]
    },
    {
      "name": "pCube1_blinn2_0",
      "primitives": [
        {
          "attributes": {
            "NORMAL": 5,
            "POSITION": 4,
            "TEXCOORD_0": 6
          },
          "indices": 7,
          "material": 1,
          "mode": 4
        }
      ]
    },
    {
      "name": "pCube2_blinn2_0",
      "primitives": [
        {
          "attributes": {
            "NORMAL": 9,
            "POSITION": 8,
            "TEXCOORD_0": 10
          },
          "indices": 11,
          "material": 1,
          "mode": 4
        }
      ]
    },
    {
      "name": "polySurface3_blinn3_0",
      "primitives": [
        {
          "attributes": {
            "NORMAL": 13,
            "POSITION": 12,
            "TEXCOORD_0": 14
          },
          "indices": 15,
          "material": 2,
          "mode": 4
        }
      ]
    },
    {
      "name": "polySurface4_blinn3_0",
      "primitives": [
        {
          "attributes": {
            "NORMAL": 17,
            "POSITION": 16,
            "TEXCOORD_0": 18
          },
          "indices": 19,
          "material": 2,
          "mode": 4
        }
      ]
    },
    {
      "name": "polySurface5_blinn3_0",
      "primitives": [
        {
          "attributes": {
            "NORMAL": 21,
            "POSITION": 20,
            "TEXCOORD_0": 22
          },
          "indices": 23,
          "material": 2,
          "mode": 4
        }
      ]
    },
    {
      "name": "polySurface6_blinn3_0",
      "primitives": [
        {
          "attributes": {
            "NORMAL": 25,
            "POSITION": 24,
            "TEXCOORD_0": 26
          },
          "indices": 27,
          "material": 2,
          "mode": 4
        }
      ]
    },
    {
      "name": "pCylinder2_blinn2_0",
      "primitives": [
        {
          "attributes": {
            "NORMAL": 29,
            "POSITION": 28,
            "TEXCOORD_0": 30
          },
          "indices": 31,
          "material": 1,
          "mode": 4
        }
      ]
    }
  ],
  "nodes": [
    {
      "children": [
        1
      ],
      "matrix": [
        1.0,
        0.0,
        0.0,
        0.0,
        0.0,
        2.220446049250313e-16,
        -1.0,
        0.0,
        0.0,
        1.0,
        2.220446049250313e-16,
        0.0,
        0.0,
        0.0,
        0.0,
        1.0
      ],
      "name": "Sketchfab_model"
    },
    {
      "children": [
        2
      ],
      "matrix": [
        1.0,
        0.0,
        0.0,
        0.0,
        0.0,
        0.0,
        1.0,
        0.0,
        0.0,
        -1.0,
        0.0,
        0.0,
        0.0,
        0.0,
        0.0,
        1.0
      ],
      "name": "46e50b5b92b3449b88341d8f3e1bc2c3.fbx"
    },
    {
      "children": [
        3,
        5,
        7,
        9,
        18
      ],
      "name": "RootNode"
    },
    {
      "children": [
        4
      ],
      "matrix": [
        1.5396016279917965e-16,
        0.6933749318122864,
        0.0,
        0.0,
        -30.43641471862793,
        6.7582416815321466e-15,
        0.0,
        0.0,
        0.0,
        0.0,
        0.6673135757446289,
        0.0,
        0.0,
        1.7922120094299316,
        -5.948897197072256e-08,
        1.0
      ],
      "name": "pCylinder1"
    },
    {
      "mesh": 0,
      "name": "pCylinder1_blinn1_0"
    },
    {
      "children": [
        6
      ],
      "matrix": [
        1.6144723892211914,
        0.0,
        0.0,
        0.0,
        0.0,
        1.6144723892211914,
        0.0,
        0.0,
        0.0,
        0.0,
        1.6144723892211914,
        0.0,
        32.19351577758789,
        1.8308279514312744,
        0.0,
        1.0
      ],
      "name": "pCube1"
    },
    {
      "mesh": 1,
      "name": "pCube1_blinn2_0"
    },
    {
      "children": [
        8
      ],
      "matrix": [
        2.065890312194824,
        0.0,
        0.0,
        0.0,
        0.0,
        1.5911571979522705,
        0.0,
        0.0,
        0.0,
        0.0,
        6.113142013549805,
        0.0,
        33.228187561035156,
        1.8308279514312744,
        0.0,
        1.0
      ],
      "name": "pCube2"
    },
    {
      "mesh": 2,
      "name": "pCube2_blinn2_0"
    },
    {
      "children": [
        10,
        12,
        14,
        16
      ],
      "matrix": [
        1.2293007373809814,
        0.0,
        0.0,
        0.0,
        0.0,
        0.952560776414428,
        0.7770510087260467,
        0.0,
        0.0,
        -0.7770510087260467,
        0.952560776414428,
        0.0,
        0.7600212097167969,
        0.023590408265590668,
        -1.4208287000656128,
        1.0
      ],
      "name": "pCube7"
    },
    {
      "children": [
        11
      ],
      "name": "polySurface3"
    },
    {
      "mesh": 3,
      "name": "polySurface3_blinn3_0"
    },
    {
      "children": [
        13
      ],
      "name": "polySurface4"
    },
    {
      "mesh": 4,
      "name": "polySurface4_blinn3_0"
    },
    {
      "children": [
        15
      ],
      "name": "polySurface5"
    },
    {
      "mesh": 5,
      "name": "polySurface5_blinn3_0"
    },
    {
      "children": [
        17
      ],
      "name": "polySurface6"
    },
    {
      "mesh": 6,
      "name": "polySurface6_blinn3_0"
    },
    {
      "children": [
        19
      ],
      "matrix": [
        1.677661777996041e-16,
        0.7555516958236694,
        0.0,
        0.0,
        -0.7555516958236694,
        1.677661777996041e-16,
        0.0,
        0.0,
        0.0,
        0.0,
        0.7555516958236694,
        0.0,
        -11.91970443725586,
        1.8069130182266235,
        0.0,
        1.0
      ],
      "name": "pCylinder2"
    },
    {
      "mesh": 7,
      "name": "pCylinder2_blinn2_0"
    }
  ],
  "samplers": [
    {
      "magFilter": 9729,
      "minFilter": 9987,
      "wrapS": 10497,
      "wrapT": 10497
    }
  ],
  "scene": 0,
  "scenes": [
    {
      "name": "Sketchfab_Scene",
      "nodes": [
        0
      ]
    }
  ],
  "textures": [
    {
      "sampler": 0,
      "source": 0
    },
    {
      "sampler": 0,
      "source": 1
    },
    {
      "sampler": 0,
      "source": 2
    }
  ]
}
