<svg xmlns="http://www.w3.org/2000/svg" viewBox="0 0 128 128" role="img" aria-label="Three medium gray clouds with light snow">
  <g transform="translate(16 16) scale(.75)">
    <g transform="translate(0 14)">
      <path fill="#a7adb4" stroke="#202020" stroke-linejoin="round" stroke-width="3" d="M1 66h50c8 0 14-6 14-14s-6-14-14-14h-3c-5-10-14-16-25-16-14 0-25 11-26 24-7 1-13 7-13 14 0 4 7 6 17 6Z"/>
      <path fill="#bcc1c7" stroke="#202020" stroke-linejoin="round" stroke-width="3" d="M36 72h58c9 0 16-7 16-16s-7-16-16-16h-4c-5-12-16-19-29-19-16 0-28 12-29 27-8 1-15 8-15 16 0 5 8 8 19 8Z"/>
      <path fill="#9299a2" stroke="#202020" stroke-linejoin="round" stroke-width="3" d="M78 66h45c8 0 14-6 14-14s-6-14-14-14h-3c-4-10-13-16-24-16-13 0-24 10-25 23-7 1-12 7-12 14 0 4 7 7 19 7Z"/>
      <g fill="#ffffff" stroke="#202020" stroke-width="1.5">
        <circle cx="16" cy="84" r="6"/>
        <circle cx="64" cy="84" r="6"/>
        <circle cx="112" cy="84" r="6"/>
        <circle cx="40" cy="98" r="6"/>
        <circle cx="88" cy="98" r="6"/>
      </g>
    </g>
  </g>
</svg>
