<svg xmlns="http://www.w3.org/2000/svg" viewBox="0 0 128 128" role="img" aria-labelledby="title">
  <title id="title">Caradhras pass state 5, snowy but passable</title>
  <circle cx="64" cy="64" r="58" fill="#c2d2d9"/>
  <circle cx="64" cy="59" r="24" fill="#ffd45a"/>
  <path d="M30 62c0-8 7-15 15-15 6 0 11 3 14 8 3-2 6-3 10-3 9 0 16 7 16 15s-7 15-16 15H32c-8 0-14-6-14-13 0-6 5-12 12-13z" fill="#dcdcdc"/>
  <path d="M47 66c0-8 7-15 15-15 6 0 11 3 14 8 3-2 6-3 10-3 9 0 16 7 16 15s-7 15-16 15H49c-8 0-14-6-14-13 0-6 5-12 12-13z" fill="#d0d0d0"/>
  <path d="M64 65c0-7 6-13 13-13 5 0 9 2 12 6 2-2 5-2 8-2 8 0 14 6 14 13s-6 13-14 13H66c-7 0-12-5-12-11 0-5 4-10 10-11z" fill="#d8d8d8"/>
  <g fill="#ffffff">
    <circle cx="42" cy="96" r="3"/>
    <circle cx="64" cy="96" r="3"/>
    <circle cx="86" cy="96" r="3"/>
  </g>
</svg>
