<svg xmlns="http://www.w3.org/2000/svg" viewBox="0 0 128 128" role="img" aria-labelledby="title">
  <title id="title">Caradhras pass state 7, heavy snow</title>
  <circle cx="64" cy="64" r="58" fill="#aab4b9"/>
  <g transform="translate(0 -8)">
    <path d="M23 63c0-8 6-14 14-14 5 0 10 3 12 7 3-3 7-5 12-5 8 0 15 7 15 15s-7 15-15 15H25c-7 0-12-5-12-11 0-5 4-10 10-11z" fill="#c2c2c2"/>
    <path d="M39 53c0-10 8-18 18-18 7 0 13 4 16 9 3-3 8-5 13-5 9 0 16 7 16 16s-7 16-16 16H41c-8 0-14-6-14-13 0-6 5-11 12-12z" fill="#ababab"/>
    <path d="M62 66c0-8 6-14 14-14 5 0 10 3 12 7 3-3 7-5 11-5 8 0 14 7 14 15s-6 15-14 15H64c-7 0-12-5-12-11 0-5 4-10 10-11z" fill="#c2c2c2"/>
  </g>
  <g fill="#ffffff">
    <circle cx="34" cy="88" r="3"/>
    <circle cx="54" cy="88" r="3"/>
    <circle cx="74" cy="88" r="3"/>
    <circle cx="94" cy="88" r="3"/>
    <circle cx="44" cy="101" r="3"/>
    <circle cx="64" cy="101" r="3"/>
    <circle cx="84" cy="101" r="3"/>
  </g>
</svg>
