<?xml version="1.0" encoding="UTF-8"?>
<svg xmlns="http://www.w3.org/2000/svg" width="1242" height="816" viewBox="0 0 1242 816">
  <rect width="100%" height="100%" fill="#f8f6ec"/>
  <image href="../source/middle-earth-reference.jpg" x="0" y="0" width="1242" height="816" opacity="0.36"/>
  <path d="M 25 144 L 31 140 L 34 140 L 34 141 L 41 140 L 42 142 L 46 141 L 47 139 L 53 137 L 63 126 L 67 125 L 70 122 L 76 121 L 76 120 L 87 119 L 94 111 L 102 110 L 108 104 L 108 102 L 110 102 L 111 100 L 113 100 L 117 97 L 118 93 L 115 90 L 111 90 L 111 89 L 88 89 L 83 82 L 82 76 L 86 71 L 88 71 L 93 66 L 93 63 L 95 60 L 105 57 L 112 47 L 120 44 L 121 40 L 124 37 L 132 34 L 133 32 L 137 31 L 138 29 L 144 29 L 152 22 L 159 23 L 165 17 L 179 16 L 187 8 L 189 8 L 196 0 L 229 0 L 228 7 L 225 9 L 225 11 L 221 15 L 221 17 L 212 26 L 210 26 L 207 30 L 204 30 L 203 32 L 195 33 L 195 34 L 192 34 L 191 36 L 187 36 L 187 37 L 184 37 L 182 39 L 178 39 L 177 41 L 170 43 L 154 57 L 154 59 L 151 61 L 151 63 L 149 64 L 149 67 L 148 67 L 148 77 L 147 77 L 147 81 L 146 81 L 146 85 L 145 85 L 145 89 L 144 89 L 144 98 L 143 98 L 143 103 L 144 103 L 143 113 L 144 113 L 145 131 L 146 131 L 146 138 L 148 140 L 148 145 L 151 149 L 151 153 L 154 157 L 154 160 L 157 163 L 157 166 L 159 168 L 159 173 L 162 177 L 163 184 L 164 184 L 163 191 L 162 191 L 164 236 L 147 238 L 147 237 L 141 235 L 139 232 L 125 233 L 125 232 L 120 231 L 119 229 L 117 229 L 115 227 L 99 228 L 92 223 L 86 222 L 86 223 L 81 225 L 81 227 L 78 231 L 78 239 L 80 240 L 80 242 L 82 243 L 83 248 L 84 248 L 84 250 L 82 252 L 78 252 L 78 251 L 75 251 L 74 249 L 70 248 L 66 242 L 64 242 L 62 239 L 60 239 L 57 236 L 54 236 L 54 235 L 49 236 L 49 237 L 43 236 L 42 235 L 42 225 L 44 223 L 44 220 L 41 217 L 32 216 L 28 211 L 28 206 L 27 206 L 27 202 L 26 202 L 26 181 L 27 181 L 27 177 L 30 174 L 30 170 L 28 168 L 27 152 L 25 150 Z" fill="#75A86B" fill-opacity="0.46" fill-rule="evenodd" stroke="#1f2933" stroke-width="0.9" vector-effect="non-scaling-stroke"/>
  <path d="M 73 284 L 78 276 L 78 269 L 81 265 L 86 266 L 86 268 L 88 269 L 89 275 L 94 276 L 98 279 L 105 279 L 105 278 L 113 277 L 113 276 L 117 275 L 118 271 L 120 269 L 123 269 L 127 265 L 129 265 L 130 268 L 132 268 L 133 270 L 136 271 L 143 264 L 143 257 L 145 254 L 156 254 L 160 257 L 167 258 L 167 261 L 169 262 L 170 267 L 172 268 L 175 275 L 180 280 L 179 287 L 180 287 L 180 291 L 181 291 L 181 298 L 182 298 L 184 313 L 187 316 L 186 328 L 187 328 L 187 337 L 189 339 L 190 346 L 195 354 L 196 359 L 199 361 L 201 368 L 206 373 L 206 376 L 207 376 L 207 378 L 210 382 L 211 388 L 212 388 L 212 398 L 210 400 L 210 406 L 206 405 L 201 400 L 199 400 L 198 395 L 190 388 L 183 387 L 183 386 L 173 386 L 166 378 L 165 379 L 159 378 L 158 380 L 153 381 L 153 382 L 145 381 L 141 378 L 127 378 L 127 379 L 123 378 L 121 375 L 121 360 L 116 353 L 116 349 L 119 345 L 117 342 L 115 342 L 115 341 L 106 342 L 106 341 L 102 341 L 101 339 L 98 341 L 87 341 L 87 340 L 83 340 L 80 337 L 80 332 L 79 332 L 78 326 L 73 321 L 73 318 L 76 315 L 77 310 L 78 310 L 78 307 L 74 301 L 74 296 L 75 296 L 76 290 L 73 288 Z" fill="#7EB573" fill-opacity="0.46" fill-rule="evenodd" stroke="#1f2933" stroke-width="0.9" vector-effect="non-scaling-stroke"/>
  <path d="M 143 98 L 144 98 L 144 89 L 145 89 L 145 85 L 146 85 L 146 81 L 147 81 L 147 77 L 148 77 L 149 64 L 163 48 L 165 48 L 170 43 L 177 41 L 178 39 L 182 39 L 184 37 L 191 36 L 192 34 L 200 33 L 200 32 L 203 32 L 204 30 L 207 30 L 224 13 L 225 9 L 228 7 L 229 0 L 256 0 L 253 5 L 244 6 L 240 9 L 241 16 L 237 20 L 237 22 L 241 25 L 247 26 L 250 29 L 249 37 L 252 38 L 256 43 L 258 43 L 258 44 L 266 44 L 267 43 L 267 47 L 269 48 L 274 66 L 275 66 L 276 71 L 277 71 L 279 78 L 280 78 L 280 89 L 281 89 L 282 103 L 287 110 L 287 115 L 289 117 L 289 123 L 291 124 L 292 130 L 293 130 L 293 136 L 295 137 L 293 155 L 291 157 L 290 162 L 287 164 L 286 168 L 284 169 L 283 174 L 284 174 L 285 178 L 281 184 L 281 196 L 282 196 L 281 216 L 282 216 L 282 220 L 283 220 L 283 226 L 282 226 L 282 234 L 279 237 L 279 239 L 277 239 L 273 242 L 269 242 L 269 243 L 260 243 L 260 244 L 257 243 L 257 244 L 250 244 L 250 245 L 241 246 L 237 249 L 234 249 L 234 250 L 226 253 L 225 255 L 221 256 L 220 258 L 216 259 L 211 264 L 209 264 L 207 267 L 205 267 L 196 276 L 193 276 L 190 278 L 183 278 L 182 280 L 179 280 L 179 278 L 175 275 L 174 271 L 170 267 L 170 264 L 167 261 L 167 257 L 169 257 L 170 255 L 173 255 L 179 248 L 181 248 L 185 244 L 185 242 L 188 239 L 188 235 L 183 232 L 183 233 L 179 233 L 179 234 L 176 234 L 173 236 L 164 236 L 164 217 L 163 217 L 163 200 L 162 200 L 162 191 L 163 191 L 164 184 L 163 184 L 162 177 L 159 173 L 159 168 L 157 166 L 157 163 L 154 160 L 154 157 L 151 153 L 151 149 L 148 145 L 148 140 L 146 138 L 145 121 L 144 121 L 144 113 L 143 113 L 143 110 L 144 110 L 143 109 L 144 108 Z" fill="#88C37C" fill-opacity="0.46" fill-rule="evenodd" stroke="#1f2933" stroke-width="0.9" vector-effect="non-scaling-stroke"/>
  <path d="M 179 282 L 183 278 L 190 278 L 190 277 L 196 276 L 198 273 L 200 273 L 205 267 L 207 267 L 213 261 L 215 261 L 216 259 L 220 258 L 221 256 L 225 255 L 226 253 L 228 253 L 234 249 L 237 249 L 241 246 L 250 245 L 250 244 L 269 243 L 269 242 L 273 242 L 273 241 L 279 239 L 279 237 L 282 234 L 282 226 L 283 226 L 283 220 L 282 220 L 282 216 L 281 216 L 281 207 L 282 207 L 281 184 L 282 184 L 285 177 L 288 177 L 288 178 L 293 177 L 301 169 L 303 169 L 304 167 L 306 167 L 312 163 L 329 164 L 329 163 L 360 162 L 365 167 L 365 170 L 367 171 L 367 174 L 369 175 L 369 178 L 371 179 L 372 184 L 373 184 L 377 194 L 379 195 L 379 199 L 381 201 L 381 219 L 383 222 L 383 229 L 384 229 L 384 234 L 385 234 L 386 259 L 387 259 L 388 264 L 389 264 L 389 276 L 381 278 L 380 280 L 375 281 L 375 282 L 360 283 L 353 290 L 351 290 L 350 292 L 343 295 L 337 303 L 328 306 L 320 315 L 313 317 L 313 318 L 309 318 L 308 320 L 306 320 L 304 325 L 303 325 L 303 329 L 302 329 L 302 337 L 303 337 L 303 341 L 305 344 L 305 348 L 302 352 L 296 353 L 296 354 L 290 353 L 290 352 L 273 354 L 273 353 L 270 353 L 268 351 L 262 351 L 262 350 L 250 351 L 247 355 L 246 372 L 244 374 L 244 379 L 242 381 L 240 389 L 238 389 L 238 391 L 234 394 L 232 399 L 226 404 L 223 404 L 220 406 L 210 406 L 210 400 L 212 398 L 212 388 L 211 388 L 210 382 L 206 376 L 206 373 L 203 371 L 203 369 L 200 366 L 199 361 L 195 357 L 195 354 L 190 346 L 189 339 L 187 337 L 187 328 L 186 328 L 187 316 L 185 315 L 184 309 L 183 309 Z" fill="#92D185" fill-opacity="0.46" fill-rule="evenodd" stroke="#1f2933" stroke-width="0.9" vector-effect="non-scaling-stroke"/>
  <path d="M 267 43 L 275 41 L 279 38 L 288 37 L 288 36 L 301 37 L 305 41 L 307 41 L 308 43 L 311 43 L 314 41 L 314 39 L 317 37 L 317 35 L 320 32 L 325 30 L 325 28 L 326 28 L 325 15 L 317 13 L 316 10 L 312 6 L 309 6 L 309 5 L 304 6 L 301 9 L 298 6 L 298 0 L 461 0 L 466 5 L 471 6 L 471 10 L 468 12 L 468 14 L 465 18 L 465 22 L 463 23 L 462 32 L 457 40 L 457 46 L 455 47 L 455 50 L 454 50 L 453 55 L 452 55 L 452 68 L 451 68 L 451 71 L 450 71 L 450 74 L 448 77 L 447 88 L 446 88 L 445 94 L 443 95 L 443 99 L 435 107 L 432 108 L 432 110 L 429 112 L 428 115 L 426 115 L 425 117 L 423 117 L 419 121 L 419 123 L 413 129 L 413 131 L 408 135 L 408 137 L 398 147 L 396 147 L 394 150 L 387 151 L 385 153 L 381 153 L 380 155 L 371 157 L 367 161 L 365 161 L 363 164 L 360 162 L 329 163 L 329 164 L 312 163 L 312 164 L 304 167 L 303 169 L 301 169 L 296 175 L 294 175 L 291 178 L 285 177 L 283 172 L 284 172 L 284 169 L 286 168 L 287 164 L 290 162 L 291 157 L 293 155 L 295 137 L 293 136 L 293 130 L 292 130 L 291 124 L 289 123 L 289 117 L 287 115 L 287 110 L 282 103 L 281 89 L 280 89 L 280 78 L 279 78 L 279 75 L 278 75 L 276 68 L 274 66 L 269 48 L 267 47 Z" fill="#9BDE8D" fill-opacity="0.46" fill-rule="evenodd" stroke="#1f2933" stroke-width="0.9" vector-effect="non-scaling-stroke"/>
  <path d="M 427 115 L 432 110 L 432 108 L 435 107 L 443 99 L 443 95 L 445 94 L 445 91 L 447 88 L 448 77 L 449 77 L 449 74 L 450 74 L 450 71 L 452 68 L 452 55 L 453 55 L 453 52 L 455 50 L 455 47 L 457 46 L 457 40 L 462 32 L 463 23 L 465 22 L 465 18 L 467 16 L 468 12 L 471 10 L 471 7 L 473 7 L 475 9 L 479 9 L 479 10 L 482 10 L 485 12 L 498 14 L 498 15 L 503 16 L 511 21 L 512 20 L 513 21 L 519 20 L 519 21 L 525 21 L 525 22 L 531 23 L 531 24 L 536 25 L 540 28 L 543 28 L 543 29 L 545 29 L 545 30 L 557 35 L 557 36 L 560 36 L 566 40 L 573 41 L 578 45 L 582 44 L 584 46 L 588 46 L 591 49 L 595 49 L 596 51 L 598 51 L 618 70 L 618 73 L 622 77 L 622 85 L 625 88 L 624 99 L 625 99 L 626 108 L 627 108 L 627 111 L 629 112 L 629 116 L 632 119 L 632 122 L 636 126 L 637 130 L 633 130 L 633 131 L 628 132 L 624 135 L 596 135 L 596 136 L 594 136 L 592 138 L 592 140 L 586 146 L 584 146 L 578 152 L 578 154 L 576 156 L 574 156 L 573 158 L 569 158 L 567 160 L 558 161 L 550 171 L 548 171 L 538 182 L 536 182 L 530 176 L 530 174 L 527 173 L 525 170 L 520 169 L 520 168 L 510 168 L 510 167 L 506 166 L 497 157 L 497 155 L 494 153 L 494 151 L 492 150 L 492 148 L 489 146 L 489 144 L 487 142 L 485 142 L 481 139 L 470 140 L 468 138 L 465 138 L 461 134 L 439 128 L 437 125 L 434 124 L 434 122 Z" fill="#75A86B" fill-opacity="0.46" fill-rule="evenodd" stroke="#1f2933" stroke-width="0.9" vector-effect="non-scaling-stroke"/>
  <path d="M 363 163 L 371 157 L 380 155 L 381 153 L 385 153 L 387 151 L 394 150 L 408 137 L 408 135 L 417 126 L 419 121 L 427 115 L 434 122 L 434 124 L 437 125 L 439 128 L 461 134 L 462 136 L 464 136 L 465 138 L 468 138 L 470 140 L 481 139 L 481 140 L 487 142 L 489 144 L 489 146 L 492 148 L 492 150 L 494 151 L 494 153 L 497 155 L 497 157 L 506 166 L 508 166 L 510 168 L 520 168 L 520 169 L 525 170 L 527 173 L 529 173 L 530 176 L 536 182 L 538 182 L 539 190 L 538 190 L 537 195 L 534 199 L 532 210 L 530 213 L 529 229 L 528 229 L 528 232 L 526 235 L 527 246 L 525 248 L 527 259 L 526 259 L 525 266 L 524 266 L 523 284 L 520 286 L 519 290 L 517 292 L 515 292 L 513 295 L 511 295 L 508 299 L 503 300 L 502 302 L 495 302 L 495 303 L 493 303 L 493 304 L 491 304 L 491 305 L 489 305 L 481 310 L 478 310 L 477 312 L 472 312 L 472 310 L 465 303 L 463 303 L 461 301 L 457 301 L 457 300 L 451 300 L 448 297 L 446 297 L 446 295 L 443 292 L 441 292 L 439 290 L 412 290 L 412 289 L 404 287 L 398 281 L 392 279 L 389 276 L 389 264 L 388 264 L 388 261 L 386 259 L 385 234 L 384 234 L 384 229 L 383 229 L 383 222 L 381 219 L 381 201 L 379 199 L 379 195 L 377 194 L 377 192 L 372 184 L 371 179 L 369 178 L 369 175 L 367 174 L 367 171 L 365 170 L 365 167 L 363 166 Z" fill="#7EB573" fill-opacity="0.46" fill-rule="evenodd" stroke="#1f2933" stroke-width="0.9" vector-effect="non-scaling-stroke"/>
  <path d="M 523 274 L 524 274 L 525 262 L 527 259 L 527 255 L 526 255 L 526 251 L 525 251 L 525 248 L 527 246 L 526 235 L 527 235 L 527 232 L 529 229 L 530 213 L 532 210 L 533 202 L 534 202 L 534 199 L 535 199 L 537 192 L 539 190 L 538 181 L 548 171 L 550 171 L 558 161 L 567 160 L 569 158 L 573 158 L 574 156 L 576 156 L 578 154 L 578 152 L 584 146 L 586 146 L 592 140 L 592 138 L 594 136 L 596 136 L 596 135 L 624 135 L 624 134 L 631 132 L 633 130 L 638 130 L 638 137 L 640 139 L 640 146 L 642 148 L 642 153 L 643 153 L 643 158 L 642 158 L 642 165 L 643 165 L 642 172 L 643 172 L 643 174 L 642 174 L 642 182 L 641 182 L 642 185 L 640 187 L 638 202 L 637 202 L 637 206 L 636 206 L 636 218 L 637 218 L 636 224 L 637 224 L 637 226 L 636 226 L 636 237 L 635 237 L 635 242 L 634 242 L 635 245 L 630 252 L 630 255 L 626 261 L 625 266 L 621 270 L 621 273 L 618 275 L 618 278 L 617 278 L 617 281 L 616 281 L 616 284 L 614 287 L 614 291 L 613 292 L 607 292 L 607 291 L 603 291 L 603 290 L 582 291 L 582 290 L 572 289 L 568 286 L 546 285 L 546 284 L 538 285 L 538 284 L 531 283 L 531 282 L 526 283 L 526 282 L 523 282 Z" fill="#88C37C" fill-opacity="0.46" fill-rule="evenodd" stroke="#1f2933" stroke-width="0.9" vector-effect="non-scaling-stroke"/>
  <path d="M 235 419 L 236 419 L 236 417 L 241 409 L 242 403 L 243 403 L 243 396 L 242 396 L 239 389 L 240 389 L 240 386 L 241 386 L 242 381 L 244 379 L 244 374 L 246 372 L 246 360 L 247 360 L 248 353 L 250 351 L 253 351 L 253 350 L 268 351 L 268 352 L 273 353 L 273 354 L 279 354 L 279 353 L 283 353 L 283 352 L 290 352 L 290 353 L 296 354 L 296 353 L 302 352 L 305 348 L 305 344 L 304 344 L 303 337 L 302 337 L 302 329 L 303 329 L 303 325 L 304 325 L 305 321 L 308 320 L 309 318 L 313 318 L 313 317 L 320 315 L 328 306 L 337 303 L 343 295 L 345 295 L 346 293 L 353 290 L 360 283 L 375 282 L 375 281 L 380 280 L 381 278 L 384 278 L 386 276 L 390 276 L 392 279 L 398 281 L 404 287 L 412 289 L 412 290 L 439 290 L 439 291 L 443 292 L 446 295 L 446 297 L 448 297 L 449 299 L 461 301 L 461 302 L 465 303 L 472 310 L 472 312 L 469 313 L 467 315 L 467 317 L 459 325 L 457 325 L 457 327 L 454 329 L 453 336 L 451 337 L 451 340 L 450 340 L 450 344 L 448 345 L 448 347 L 446 349 L 437 351 L 427 360 L 426 363 L 424 363 L 422 366 L 419 366 L 417 369 L 412 370 L 410 372 L 410 374 L 407 376 L 407 379 L 406 379 L 403 387 L 399 391 L 393 393 L 392 395 L 390 395 L 388 397 L 382 410 L 375 417 L 366 418 L 354 426 L 354 428 L 352 429 L 349 441 L 345 446 L 345 450 L 344 450 L 339 462 L 335 463 L 333 465 L 333 467 L 329 470 L 329 472 L 324 476 L 323 479 L 321 479 L 316 484 L 313 484 L 305 492 L 302 492 L 299 494 L 294 494 L 289 490 L 287 485 L 285 485 L 283 482 L 274 480 L 274 472 L 271 469 L 271 467 L 268 463 L 268 460 L 267 460 L 268 452 L 273 447 L 273 444 L 271 442 L 271 435 L 273 433 L 273 430 L 271 429 L 271 427 L 267 423 L 266 419 L 265 418 L 263 419 L 259 428 L 257 429 L 256 440 L 251 445 L 251 447 L 249 447 L 246 450 L 241 450 L 240 448 L 238 448 L 236 446 L 237 434 L 236 434 L 236 430 L 235 430 L 235 424 L 236 424 Z" fill="#92D185" fill-opacity="0.46" fill-rule="evenodd" stroke="#1f2933" stroke-width="0.9" vector-effect="non-scaling-stroke"/>
  <path d="M 446 348 L 450 344 L 450 340 L 451 340 L 451 337 L 453 336 L 454 329 L 457 327 L 457 325 L 459 325 L 467 317 L 467 315 L 469 313 L 477 312 L 478 310 L 481 310 L 481 309 L 483 309 L 483 308 L 485 308 L 485 307 L 487 307 L 495 302 L 502 302 L 503 300 L 508 299 L 511 295 L 513 295 L 515 292 L 517 292 L 519 290 L 519 288 L 523 284 L 523 282 L 526 282 L 526 283 L 531 282 L 531 283 L 535 283 L 538 285 L 546 284 L 546 285 L 568 286 L 572 289 L 582 290 L 582 291 L 603 290 L 603 291 L 607 291 L 607 292 L 613 292 L 612 298 L 611 298 L 612 302 L 609 304 L 608 308 L 606 309 L 604 318 L 602 319 L 602 321 L 600 322 L 599 326 L 597 327 L 597 329 L 595 330 L 595 332 L 593 334 L 593 341 L 590 345 L 591 350 L 590 350 L 590 362 L 588 364 L 589 370 L 588 370 L 588 375 L 587 375 L 587 387 L 585 390 L 584 402 L 582 405 L 578 405 L 576 403 L 574 403 L 574 404 L 567 404 L 567 403 L 524 404 L 524 403 L 517 403 L 517 402 L 513 402 L 513 401 L 509 401 L 509 400 L 503 400 L 492 393 L 467 394 L 465 391 L 465 386 L 463 384 L 462 379 L 458 376 L 455 368 L 451 364 L 449 354 L 448 354 Z" fill="#9BDE8D" fill-opacity="0.46" fill-rule="evenodd" stroke="#1f2933" stroke-width="0.9" vector-effect="non-scaling-stroke"/>
  <path d="M 330 527 L 331 527 L 331 524 L 333 523 L 334 519 L 340 513 L 340 507 L 339 507 L 339 504 L 337 502 L 336 495 L 334 492 L 334 489 L 335 489 L 334 485 L 335 485 L 335 482 L 338 478 L 339 471 L 340 471 L 340 468 L 338 467 L 338 462 L 339 462 L 339 460 L 340 460 L 340 458 L 345 450 L 346 444 L 349 441 L 352 429 L 360 421 L 363 421 L 366 418 L 375 417 L 382 410 L 388 397 L 390 395 L 392 395 L 393 393 L 399 391 L 403 387 L 403 385 L 405 384 L 405 381 L 407 379 L 407 376 L 410 374 L 410 372 L 412 370 L 417 369 L 419 366 L 422 366 L 424 363 L 426 363 L 427 360 L 437 351 L 446 349 L 448 354 L 449 354 L 451 364 L 455 368 L 458 376 L 462 379 L 463 384 L 465 386 L 465 391 L 467 393 L 466 398 L 465 398 L 465 401 L 466 401 L 466 413 L 465 413 L 466 443 L 464 445 L 464 449 L 463 449 L 463 453 L 462 453 L 463 479 L 462 479 L 462 482 L 460 485 L 460 490 L 459 490 L 460 514 L 459 514 L 459 518 L 457 521 L 455 539 L 454 538 L 450 539 L 444 546 L 435 546 L 431 551 L 424 551 L 424 552 L 419 553 L 419 554 L 416 552 L 410 552 L 408 550 L 402 549 L 398 539 L 385 539 L 385 540 L 379 540 L 376 542 L 372 541 L 372 542 L 367 543 L 360 550 L 358 550 L 351 559 L 349 559 L 348 557 L 344 557 L 343 559 L 341 559 L 341 561 L 338 564 L 333 565 L 330 563 L 331 549 L 332 549 Z" fill="#75A86B" fill-opacity="0.46" fill-rule="evenodd" stroke="#1f2933" stroke-width="0.9" vector-effect="non-scaling-stroke"/>
  <path d="M 455 534 L 456 534 L 457 521 L 458 521 L 459 514 L 460 514 L 459 490 L 460 490 L 460 485 L 461 485 L 461 482 L 463 479 L 462 453 L 463 453 L 464 445 L 466 443 L 466 427 L 465 427 L 465 413 L 466 413 L 465 398 L 466 398 L 466 395 L 467 394 L 477 394 L 477 393 L 492 393 L 503 400 L 509 400 L 509 401 L 513 401 L 513 402 L 517 402 L 517 403 L 524 403 L 524 404 L 536 404 L 536 403 L 574 404 L 574 403 L 576 403 L 578 405 L 582 405 L 581 418 L 580 418 L 580 421 L 579 421 L 578 426 L 577 426 L 577 431 L 575 433 L 576 438 L 571 442 L 571 445 L 567 448 L 567 451 L 565 452 L 565 455 L 562 459 L 562 465 L 561 465 L 560 471 L 555 479 L 555 483 L 553 485 L 549 486 L 548 488 L 544 489 L 540 493 L 540 495 L 538 496 L 538 511 L 539 511 L 540 521 L 542 523 L 545 534 L 549 538 L 550 545 L 552 546 L 552 550 L 555 553 L 557 563 L 560 565 L 560 567 L 557 569 L 549 569 L 547 567 L 544 567 L 544 568 L 536 567 L 534 565 L 527 564 L 522 558 L 516 556 L 516 554 L 513 551 L 508 551 L 504 547 L 490 548 L 483 543 L 477 543 L 477 544 L 467 543 L 467 544 L 465 544 L 465 543 L 459 541 L 458 539 L 455 539 Z" fill="#7EB573" fill-opacity="0.46" fill-rule="evenodd" stroke="#1f2933" stroke-width="0.9" vector-effect="non-scaling-stroke"/>
  <path d="M 622 79 L 624 79 L 626 76 L 632 75 L 632 74 L 636 74 L 636 75 L 654 74 L 654 73 L 659 72 L 659 71 L 662 72 L 662 71 L 666 71 L 666 70 L 670 70 L 670 69 L 680 69 L 680 68 L 685 68 L 687 66 L 698 66 L 698 67 L 701 67 L 701 66 L 710 67 L 710 66 L 712 66 L 712 67 L 715 67 L 715 66 L 728 66 L 728 65 L 733 64 L 733 63 L 746 64 L 746 70 L 745 70 L 745 73 L 744 73 L 742 80 L 740 82 L 740 89 L 738 92 L 738 96 L 736 97 L 736 101 L 734 103 L 732 113 L 728 119 L 728 122 L 726 123 L 725 129 L 723 130 L 721 136 L 719 137 L 719 140 L 718 140 L 715 148 L 710 152 L 710 154 L 705 158 L 705 160 L 700 159 L 698 161 L 695 161 L 693 164 L 689 164 L 687 167 L 685 167 L 681 171 L 675 173 L 673 176 L 668 177 L 659 186 L 656 186 L 656 187 L 648 190 L 647 192 L 644 190 L 640 190 L 640 187 L 642 185 L 641 182 L 642 182 L 642 174 L 643 174 L 643 172 L 642 172 L 643 153 L 642 153 L 642 148 L 640 146 L 640 139 L 638 137 L 638 130 L 637 130 L 636 126 L 633 124 L 632 119 L 629 116 L 629 112 L 627 111 L 627 108 L 626 108 L 625 99 L 624 99 L 625 88 L 622 85 Z" fill="#D8B365" fill-opacity="0.46" fill-rule="evenodd" stroke="#1f2933" stroke-width="0.9" vector-effect="non-scaling-stroke"/>
  <path d="M 623 267 L 625 266 L 626 261 L 630 255 L 630 252 L 635 245 L 634 242 L 635 242 L 635 237 L 636 237 L 636 226 L 637 226 L 637 224 L 636 224 L 636 220 L 637 220 L 637 218 L 636 218 L 636 206 L 637 206 L 638 196 L 639 196 L 640 190 L 644 190 L 647 192 L 648 190 L 650 190 L 656 186 L 659 186 L 668 177 L 673 176 L 675 173 L 681 171 L 683 168 L 687 167 L 689 164 L 693 164 L 695 161 L 698 161 L 700 159 L 704 159 L 705 163 L 707 164 L 706 168 L 705 168 L 706 179 L 704 181 L 705 189 L 703 192 L 703 199 L 702 199 L 700 211 L 701 211 L 701 222 L 702 222 L 703 228 L 706 232 L 705 248 L 704 248 L 704 251 L 696 258 L 691 270 L 686 274 L 686 276 L 684 278 L 685 287 L 682 290 L 682 292 L 678 293 L 678 292 L 670 290 L 669 288 L 666 288 L 666 287 L 662 288 L 662 289 L 658 289 L 658 288 L 652 286 L 651 284 L 647 284 L 647 283 L 644 283 L 642 281 L 639 281 L 638 279 L 632 277 Z" fill="#E7C06C" fill-opacity="0.46" fill-rule="evenodd" stroke="#1f2933" stroke-width="0.9" vector-effect="non-scaling-stroke"/>
  <path d="M 588 364 L 590 362 L 590 350 L 591 350 L 590 345 L 593 341 L 593 334 L 594 334 L 595 330 L 597 329 L 597 327 L 599 326 L 602 319 L 604 318 L 606 309 L 608 308 L 609 304 L 612 302 L 611 298 L 612 298 L 612 294 L 614 291 L 614 287 L 615 287 L 618 275 L 621 273 L 621 270 L 623 268 L 632 277 L 638 279 L 639 281 L 642 281 L 642 282 L 647 283 L 647 284 L 651 284 L 652 286 L 654 286 L 658 289 L 662 289 L 662 288 L 666 287 L 666 288 L 669 288 L 670 290 L 673 290 L 673 291 L 681 294 L 681 296 L 685 300 L 686 304 L 688 305 L 688 308 L 690 311 L 691 323 L 689 325 L 690 328 L 689 328 L 689 331 L 687 334 L 687 341 L 684 344 L 684 346 L 680 349 L 680 351 L 678 351 L 676 349 L 674 349 L 674 350 L 673 349 L 666 349 L 666 350 L 661 351 L 661 352 L 652 351 L 652 352 L 646 354 L 645 356 L 634 357 L 634 358 L 628 360 L 625 364 L 615 365 L 613 367 L 609 367 L 607 369 L 600 370 L 599 372 L 596 372 L 594 374 L 591 372 L 588 372 L 588 370 L 589 370 Z" fill="#F6CC73" fill-opacity="0.46" fill-rule="evenodd" stroke="#1f2933" stroke-width="0.9" vector-effect="non-scaling-stroke"/>
  <path d="M 575 433 L 577 431 L 577 426 L 578 426 L 578 423 L 579 423 L 580 418 L 581 418 L 581 408 L 582 408 L 582 404 L 584 402 L 584 394 L 585 394 L 585 390 L 587 387 L 588 372 L 591 372 L 594 374 L 596 372 L 599 372 L 600 370 L 607 369 L 607 368 L 613 367 L 615 365 L 622 365 L 634 357 L 645 356 L 646 354 L 648 354 L 652 351 L 661 352 L 661 351 L 664 351 L 666 349 L 673 349 L 673 350 L 676 349 L 676 350 L 680 351 L 680 354 L 681 354 L 681 356 L 677 362 L 677 375 L 678 375 L 678 379 L 680 380 L 680 383 L 681 383 L 681 390 L 680 390 L 681 397 L 686 402 L 686 404 L 689 406 L 691 414 L 695 418 L 695 420 L 698 421 L 700 424 L 705 425 L 712 432 L 712 435 L 715 437 L 715 445 L 708 444 L 706 442 L 694 442 L 694 443 L 692 443 L 692 442 L 682 442 L 682 443 L 680 443 L 680 442 L 670 443 L 669 442 L 669 443 L 665 443 L 664 442 L 663 444 L 649 444 L 649 443 L 618 443 L 618 444 L 611 444 L 611 443 L 602 444 L 601 443 L 601 444 L 597 444 L 597 443 L 587 442 L 585 440 L 584 441 L 579 440 L 578 438 L 575 437 Z" fill="#BA9A57" fill-opacity="0.46" fill-rule="evenodd" stroke="#1f2933" stroke-width="0.9" vector-effect="non-scaling-stroke"/>
  <path d="M 680 293 L 682 292 L 682 290 L 685 287 L 684 278 L 685 278 L 686 274 L 691 270 L 696 258 L 704 251 L 704 248 L 705 248 L 706 232 L 705 232 L 703 225 L 702 225 L 702 222 L 701 222 L 701 211 L 700 211 L 704 189 L 705 189 L 705 187 L 711 188 L 711 187 L 716 186 L 716 187 L 720 188 L 721 190 L 723 190 L 724 192 L 732 194 L 735 197 L 738 197 L 740 200 L 742 200 L 747 205 L 751 216 L 758 224 L 758 230 L 759 230 L 760 236 L 761 236 L 761 244 L 760 244 L 760 250 L 759 250 L 759 275 L 758 275 L 757 283 L 755 284 L 755 286 L 751 290 L 749 290 L 747 292 L 747 294 L 743 297 L 743 299 L 740 299 L 739 301 L 737 301 L 737 303 L 732 311 L 730 311 L 726 315 L 721 316 L 719 318 L 716 318 L 714 320 L 691 322 L 690 321 L 690 311 L 689 311 L 688 305 L 686 304 L 685 300 L 683 299 L 683 297 L 681 296 Z" fill="#C9A65E" fill-opacity="0.46" fill-rule="evenodd" stroke="#1f2933" stroke-width="0.9" vector-effect="non-scaling-stroke"/>
  <path d="M 677 362 L 681 356 L 680 349 L 684 346 L 684 344 L 687 341 L 687 334 L 688 334 L 688 331 L 690 328 L 689 325 L 691 322 L 714 320 L 716 318 L 724 316 L 728 312 L 730 312 L 734 309 L 737 301 L 742 299 L 744 301 L 744 303 L 746 304 L 748 310 L 751 312 L 753 322 L 758 330 L 758 333 L 759 333 L 761 340 L 762 340 L 762 343 L 763 343 L 763 350 L 764 350 L 765 354 L 767 355 L 767 357 L 769 359 L 769 363 L 772 367 L 773 380 L 774 380 L 774 384 L 775 384 L 775 391 L 776 391 L 776 395 L 777 395 L 779 401 L 762 418 L 760 418 L 758 421 L 756 421 L 746 433 L 744 433 L 742 436 L 737 437 L 727 449 L 724 449 L 721 446 L 715 445 L 715 437 L 712 435 L 712 432 L 705 425 L 700 424 L 698 421 L 695 420 L 695 418 L 691 414 L 689 406 L 686 404 L 686 402 L 681 397 L 681 394 L 680 394 L 681 383 L 680 383 L 680 380 L 678 379 L 678 375 L 677 375 Z" fill="#D8B365" fill-opacity="0.46" fill-rule="evenodd" stroke="#1f2933" stroke-width="0.9" vector-effect="non-scaling-stroke"/>
  <path d="M 704 181 L 706 179 L 705 168 L 707 165 L 705 163 L 705 158 L 715 148 L 715 146 L 719 140 L 719 137 L 721 136 L 723 130 L 726 127 L 726 123 L 728 122 L 728 119 L 732 113 L 734 103 L 736 101 L 736 97 L 738 96 L 738 92 L 740 89 L 740 82 L 741 82 L 742 77 L 745 73 L 746 64 L 789 67 L 793 63 L 797 62 L 800 58 L 804 58 L 804 59 L 810 61 L 812 64 L 814 64 L 816 66 L 816 86 L 817 86 L 817 91 L 819 94 L 820 103 L 822 105 L 824 113 L 828 116 L 830 123 L 832 124 L 832 126 L 835 129 L 836 136 L 838 139 L 839 158 L 840 158 L 840 165 L 842 168 L 841 169 L 842 179 L 844 182 L 846 192 L 847 192 L 848 197 L 849 197 L 850 208 L 851 208 L 852 214 L 854 216 L 853 217 L 854 225 L 855 225 L 855 229 L 856 229 L 856 232 L 858 235 L 857 242 L 858 242 L 859 253 L 860 253 L 860 268 L 861 268 L 861 273 L 862 273 L 862 289 L 863 289 L 863 293 L 864 293 L 864 296 L 866 299 L 866 303 L 867 303 L 867 307 L 868 307 L 868 311 L 869 311 L 869 316 L 870 316 L 870 321 L 872 323 L 872 327 L 873 327 L 873 330 L 875 332 L 875 336 L 877 337 L 877 339 L 874 339 L 872 342 L 870 342 L 866 346 L 856 350 L 850 356 L 850 358 L 838 363 L 835 367 L 830 368 L 823 375 L 817 376 L 814 379 L 810 379 L 809 381 L 807 381 L 804 384 L 802 384 L 801 386 L 799 386 L 795 391 L 790 393 L 788 396 L 786 396 L 782 400 L 779 400 L 777 395 L 776 395 L 776 391 L 775 391 L 775 384 L 774 384 L 774 380 L 773 380 L 773 370 L 772 370 L 772 367 L 769 363 L 769 359 L 763 350 L 763 343 L 762 343 L 761 337 L 760 337 L 758 330 L 753 322 L 751 312 L 748 310 L 746 304 L 742 300 L 743 297 L 747 294 L 747 292 L 755 286 L 755 284 L 757 283 L 757 280 L 758 280 L 759 250 L 760 250 L 760 244 L 761 244 L 761 236 L 760 236 L 760 232 L 758 230 L 758 224 L 753 219 L 753 217 L 751 216 L 751 214 L 749 212 L 747 205 L 742 200 L 740 200 L 738 197 L 735 197 L 732 194 L 724 192 L 723 190 L 721 190 L 720 188 L 718 188 L 716 186 L 711 187 L 711 188 L 705 187 Z" fill="#E7C06C" fill-opacity="0.46" fill-rule="evenodd" stroke="#1f2933" stroke-width="0.9" vector-effect="non-scaling-stroke"/>
  <path d="M 727 448 L 731 445 L 731 443 L 737 437 L 742 436 L 744 433 L 746 433 L 751 428 L 751 426 L 756 421 L 758 421 L 760 418 L 762 418 L 779 400 L 782 400 L 783 398 L 788 396 L 790 393 L 795 391 L 799 386 L 801 386 L 805 382 L 809 381 L 810 379 L 814 379 L 817 376 L 820 376 L 822 381 L 826 384 L 828 390 L 830 391 L 832 404 L 834 405 L 834 407 L 836 409 L 836 414 L 837 414 L 837 422 L 835 425 L 835 428 L 836 428 L 836 453 L 835 453 L 833 461 L 832 461 L 832 463 L 833 463 L 833 492 L 832 492 L 832 496 L 831 496 L 829 502 L 816 515 L 812 516 L 809 520 L 805 520 L 801 525 L 797 526 L 793 530 L 790 530 L 788 532 L 783 533 L 782 535 L 779 535 L 777 537 L 773 537 L 772 539 L 769 539 L 767 541 L 763 541 L 759 544 L 756 544 L 755 541 L 752 539 L 752 536 L 750 535 L 750 532 L 749 532 L 747 524 L 746 524 L 746 518 L 744 515 L 744 490 L 743 490 L 743 486 L 742 486 L 740 479 L 739 479 L 736 462 L 735 462 L 732 454 L 727 450 Z" fill="#F6CC73" fill-opacity="0.46" fill-rule="evenodd" stroke="#1f2933" stroke-width="0.9" vector-effect="non-scaling-stroke"/>
  <path d="M 757 544 L 759 544 L 763 541 L 767 541 L 769 539 L 772 539 L 773 537 L 777 537 L 779 535 L 782 535 L 783 533 L 788 532 L 790 530 L 793 530 L 797 526 L 801 525 L 805 520 L 809 520 L 812 516 L 816 515 L 829 502 L 829 500 L 832 496 L 832 492 L 833 492 L 833 463 L 832 463 L 832 461 L 833 461 L 834 455 L 836 453 L 836 428 L 835 428 L 835 425 L 837 422 L 837 414 L 836 414 L 836 409 L 835 409 L 834 405 L 832 404 L 830 391 L 828 390 L 826 384 L 822 381 L 820 376 L 823 375 L 830 368 L 835 367 L 838 363 L 850 358 L 850 356 L 856 350 L 866 346 L 867 344 L 872 342 L 874 339 L 877 339 L 878 345 L 880 346 L 880 349 L 882 352 L 882 356 L 886 359 L 886 362 L 887 362 L 887 365 L 888 365 L 888 368 L 890 371 L 893 390 L 894 390 L 894 393 L 896 395 L 897 401 L 899 402 L 900 411 L 904 414 L 904 417 L 906 420 L 906 429 L 907 429 L 908 441 L 909 441 L 910 460 L 915 467 L 916 478 L 919 481 L 921 490 L 924 493 L 924 497 L 929 504 L 929 507 L 930 507 L 930 510 L 931 510 L 931 513 L 933 516 L 933 520 L 934 520 L 936 527 L 937 527 L 937 530 L 938 530 L 939 545 L 938 545 L 938 550 L 937 550 L 937 557 L 938 557 L 938 567 L 939 567 L 939 571 L 938 571 L 939 578 L 937 578 L 937 579 L 928 578 L 928 577 L 921 578 L 921 579 L 920 578 L 916 579 L 915 577 L 905 578 L 884 564 L 880 564 L 877 562 L 870 562 L 870 561 L 864 560 L 864 559 L 857 559 L 857 560 L 853 560 L 853 561 L 849 562 L 845 566 L 845 568 L 843 569 L 841 596 L 838 596 L 837 598 L 830 597 L 828 599 L 825 599 L 823 601 L 818 602 L 817 604 L 807 606 L 803 610 L 796 611 L 796 609 L 795 609 L 796 600 L 795 600 L 793 593 L 791 592 L 791 590 L 787 586 L 787 584 L 784 582 L 784 580 L 781 578 L 780 574 L 775 569 L 774 565 L 765 558 L 761 548 Z" fill="#BA9A57" fill-opacity="0.46" fill-rule="evenodd" stroke="#1f2933" stroke-width="0.9" vector-effect="non-scaling-stroke"/>
  <path d="M 816 67 L 820 66 L 821 68 L 825 68 L 825 69 L 835 73 L 836 75 L 839 75 L 840 77 L 846 79 L 850 84 L 853 84 L 854 86 L 857 86 L 857 87 L 861 87 L 865 90 L 893 93 L 893 94 L 897 95 L 908 106 L 913 107 L 913 108 L 918 109 L 918 110 L 923 110 L 923 111 L 929 112 L 935 118 L 937 118 L 940 122 L 948 125 L 949 127 L 955 128 L 963 136 L 968 138 L 968 141 L 965 143 L 964 151 L 965 151 L 966 155 L 968 155 L 975 163 L 977 163 L 979 165 L 986 165 L 986 166 L 996 168 L 999 170 L 999 172 L 1001 173 L 1001 176 L 1002 176 L 1002 181 L 997 186 L 997 188 L 995 190 L 995 203 L 996 203 L 998 209 L 1004 214 L 1006 221 L 1007 221 L 1009 227 L 1011 228 L 1010 236 L 1006 242 L 1004 251 L 1003 251 L 1002 255 L 999 257 L 999 259 L 987 259 L 985 257 L 978 256 L 978 255 L 970 255 L 970 254 L 960 253 L 960 252 L 955 251 L 952 248 L 947 248 L 947 247 L 920 249 L 920 248 L 912 246 L 905 239 L 900 238 L 900 237 L 896 237 L 896 236 L 886 235 L 886 236 L 873 236 L 873 237 L 857 238 L 858 235 L 857 235 L 855 225 L 854 225 L 854 219 L 853 219 L 854 216 L 853 216 L 851 208 L 850 208 L 849 197 L 848 197 L 848 194 L 846 192 L 844 182 L 842 179 L 842 173 L 841 173 L 842 168 L 840 165 L 839 150 L 838 150 L 839 144 L 838 144 L 838 139 L 836 136 L 836 131 L 835 131 L 834 127 L 832 126 L 832 124 L 830 123 L 828 116 L 824 113 L 824 110 L 823 110 L 822 105 L 820 103 L 819 94 L 817 91 Z" fill="#C87171" fill-opacity="0.46" fill-rule="evenodd" stroke="#1f2933" stroke-width="0.9" vector-effect="non-scaling-stroke"/>
  <path d="M 857 238 L 873 237 L 873 236 L 886 236 L 886 235 L 896 236 L 896 237 L 900 237 L 900 238 L 905 239 L 912 246 L 920 248 L 920 249 L 947 247 L 947 248 L 952 248 L 955 251 L 960 252 L 960 253 L 965 253 L 965 254 L 970 254 L 970 255 L 978 255 L 978 256 L 985 257 L 987 259 L 999 259 L 1005 265 L 1007 273 L 1008 273 L 1008 277 L 1009 277 L 1009 289 L 1008 289 L 1009 303 L 1017 311 L 1017 313 L 1021 316 L 1021 318 L 1013 326 L 1013 329 L 1012 329 L 1012 332 L 1011 332 L 1011 335 L 1009 338 L 1010 345 L 1013 349 L 1011 360 L 1012 360 L 1012 363 L 1014 365 L 1014 371 L 1015 371 L 1015 375 L 1016 375 L 1016 384 L 1007 392 L 1005 392 L 1001 395 L 994 395 L 994 396 L 990 397 L 990 399 L 987 401 L 987 404 L 986 404 L 983 412 L 978 417 L 976 417 L 974 419 L 962 421 L 958 424 L 951 424 L 951 423 L 945 422 L 945 423 L 941 424 L 939 426 L 939 428 L 937 430 L 935 430 L 933 433 L 931 433 L 925 437 L 917 438 L 914 441 L 908 441 L 908 434 L 907 434 L 907 429 L 906 429 L 906 420 L 905 420 L 904 414 L 900 411 L 899 402 L 897 401 L 896 395 L 895 395 L 894 390 L 893 390 L 890 371 L 889 371 L 886 359 L 882 356 L 880 346 L 878 345 L 878 342 L 877 342 L 877 337 L 875 336 L 875 332 L 873 330 L 872 323 L 870 321 L 869 311 L 868 311 L 866 299 L 865 299 L 863 289 L 862 289 L 862 273 L 861 273 L 861 268 L 860 268 L 860 253 L 859 253 Z" fill="#D77A7A" fill-opacity="0.46" fill-rule="evenodd" stroke="#1f2933" stroke-width="0.9" vector-effect="non-scaling-stroke"/>
  <path d="M 964 147 L 965 147 L 965 143 L 968 141 L 968 138 L 974 139 L 974 140 L 978 140 L 978 139 L 1013 140 L 1013 139 L 1024 138 L 1024 137 L 1036 137 L 1036 136 L 1054 137 L 1054 136 L 1060 136 L 1060 135 L 1074 136 L 1074 137 L 1086 138 L 1086 139 L 1097 139 L 1097 140 L 1112 139 L 1112 138 L 1133 138 L 1133 139 L 1138 139 L 1138 140 L 1145 140 L 1145 141 L 1148 141 L 1148 142 L 1151 142 L 1154 144 L 1158 144 L 1158 145 L 1180 145 L 1181 147 L 1192 146 L 1192 145 L 1196 145 L 1196 144 L 1226 144 L 1226 145 L 1236 145 L 1236 146 L 1241 147 L 1242 148 L 1242 376 L 1223 375 L 1223 374 L 1218 374 L 1218 373 L 1205 373 L 1204 371 L 1199 370 L 1197 368 L 1189 367 L 1178 360 L 1173 362 L 1173 363 L 1165 363 L 1158 355 L 1156 355 L 1155 353 L 1153 353 L 1152 351 L 1149 350 L 1146 341 L 1140 335 L 1139 330 L 1136 328 L 1136 326 L 1133 324 L 1133 322 L 1129 319 L 1125 310 L 1123 310 L 1122 308 L 1120 308 L 1118 306 L 1105 305 L 1105 304 L 1093 304 L 1093 303 L 1079 303 L 1079 302 L 1075 302 L 1075 301 L 1069 301 L 1065 305 L 1063 305 L 1062 307 L 1060 307 L 1058 309 L 1052 309 L 1041 316 L 1021 317 L 1017 313 L 1017 311 L 1009 303 L 1009 295 L 1008 295 L 1009 277 L 1008 277 L 1008 273 L 1007 273 L 1005 265 L 999 260 L 999 257 L 1002 255 L 1004 248 L 1005 248 L 1005 245 L 1006 245 L 1006 242 L 1007 242 L 1007 240 L 1010 236 L 1010 233 L 1011 233 L 1011 228 L 1009 227 L 1004 214 L 998 209 L 998 207 L 995 203 L 995 190 L 996 190 L 997 186 L 1002 181 L 1001 173 L 996 168 L 992 168 L 992 167 L 989 167 L 986 165 L 979 165 L 979 164 L 975 163 L 968 155 L 966 155 L 966 153 L 964 151 Z" fill="#E68383" fill-opacity="0.46" fill-rule="evenodd" stroke="#1f2933" stroke-width="0.9" vector-effect="non-scaling-stroke"/>
  <path d="M 1009 338 L 1010 338 L 1013 326 L 1021 317 L 1027 317 L 1027 316 L 1038 317 L 1038 316 L 1041 316 L 1052 309 L 1058 309 L 1058 308 L 1062 307 L 1063 305 L 1065 305 L 1069 301 L 1075 301 L 1075 302 L 1079 302 L 1079 303 L 1113 305 L 1113 306 L 1118 306 L 1118 307 L 1122 308 L 1123 310 L 1125 310 L 1129 319 L 1133 322 L 1133 324 L 1139 330 L 1140 335 L 1146 341 L 1149 350 L 1152 351 L 1153 353 L 1155 353 L 1156 355 L 1158 355 L 1166 363 L 1166 365 L 1164 366 L 1164 369 L 1163 369 L 1162 382 L 1156 388 L 1155 394 L 1154 394 L 1154 397 L 1152 400 L 1150 400 L 1148 402 L 1143 402 L 1143 403 L 1137 404 L 1137 405 L 1133 406 L 1132 408 L 1129 408 L 1126 411 L 1121 411 L 1121 412 L 1115 413 L 1114 415 L 1110 416 L 1108 419 L 1103 420 L 1099 423 L 1089 422 L 1089 423 L 1085 424 L 1082 428 L 1079 428 L 1079 427 L 1076 427 L 1076 426 L 1070 424 L 1068 421 L 1064 420 L 1063 418 L 1061 418 L 1057 415 L 1054 415 L 1052 412 L 1050 412 L 1045 407 L 1037 405 L 1031 399 L 1031 397 L 1016 384 L 1016 375 L 1015 375 L 1015 371 L 1014 371 L 1014 365 L 1013 365 L 1012 360 L 1011 360 L 1013 349 L 1010 345 Z" fill="#F58B8B" fill-opacity="0.46" fill-rule="evenodd" stroke="#1f2933" stroke-width="0.9" vector-effect="non-scaling-stroke"/>
  <path d="M 1080 555 L 1084 551 L 1084 548 L 1085 548 L 1085 539 L 1086 539 L 1087 533 L 1091 530 L 1091 528 L 1099 520 L 1101 512 L 1102 512 L 1104 505 L 1105 505 L 1105 496 L 1104 496 L 1103 492 L 1099 488 L 1094 486 L 1093 484 L 1088 483 L 1085 479 L 1088 465 L 1090 464 L 1090 462 L 1094 456 L 1094 443 L 1093 443 L 1091 437 L 1089 436 L 1089 434 L 1083 428 L 1083 426 L 1089 422 L 1099 423 L 1103 420 L 1108 419 L 1110 416 L 1114 415 L 1115 413 L 1118 413 L 1121 411 L 1126 411 L 1129 408 L 1132 408 L 1133 406 L 1135 406 L 1137 404 L 1140 404 L 1143 402 L 1148 402 L 1148 401 L 1152 400 L 1154 397 L 1156 388 L 1162 382 L 1163 369 L 1164 369 L 1164 366 L 1166 365 L 1166 363 L 1173 363 L 1173 362 L 1178 360 L 1189 367 L 1197 368 L 1199 370 L 1204 371 L 1205 373 L 1218 373 L 1218 374 L 1223 374 L 1223 375 L 1242 376 L 1242 553 L 1171 555 L 1171 556 L 1164 556 L 1163 557 L 1163 556 L 1153 556 L 1153 555 L 1147 554 L 1146 552 L 1142 551 L 1139 548 L 1136 549 L 1136 548 L 1130 547 L 1130 548 L 1124 549 L 1123 547 L 1118 547 L 1117 549 L 1112 549 L 1110 552 L 1100 556 L 1097 560 L 1093 560 L 1092 562 L 1089 562 L 1088 564 L 1084 564 L 1082 566 L 1081 566 L 1081 562 L 1080 562 Z" fill="#B96969" fill-opacity="0.46" fill-rule="evenodd" stroke="#1f2933" stroke-width="0.9" vector-effect="non-scaling-stroke"/>
  <path d="M 909 441 L 914 441 L 917 438 L 925 437 L 925 436 L 933 433 L 935 430 L 937 430 L 939 428 L 939 426 L 941 424 L 943 424 L 945 422 L 951 423 L 951 424 L 958 424 L 962 421 L 966 421 L 966 420 L 974 419 L 974 418 L 978 417 L 983 412 L 983 410 L 987 404 L 987 401 L 990 399 L 990 397 L 992 397 L 994 395 L 1001 395 L 1001 394 L 1007 392 L 1015 384 L 1017 384 L 1021 389 L 1023 389 L 1037 405 L 1045 407 L 1050 412 L 1052 412 L 1054 415 L 1057 415 L 1057 416 L 1063 418 L 1064 420 L 1068 421 L 1070 424 L 1072 424 L 1076 427 L 1079 427 L 1079 428 L 1083 427 L 1086 430 L 1086 432 L 1089 434 L 1089 436 L 1091 437 L 1091 439 L 1094 443 L 1094 456 L 1093 456 L 1090 464 L 1088 465 L 1085 479 L 1088 483 L 1093 484 L 1094 486 L 1096 486 L 1097 488 L 1099 488 L 1103 492 L 1103 494 L 1105 496 L 1105 505 L 1104 505 L 1104 508 L 1101 512 L 1099 520 L 1091 528 L 1091 530 L 1087 533 L 1087 536 L 1085 539 L 1085 548 L 1084 548 L 1084 551 L 1080 555 L 1081 566 L 1076 568 L 1076 569 L 1073 569 L 1073 570 L 1051 570 L 1051 571 L 1048 571 L 1048 570 L 1044 570 L 1044 571 L 1041 571 L 1041 570 L 1032 570 L 1032 571 L 1031 570 L 1029 570 L 1029 571 L 1021 570 L 1017 573 L 1003 575 L 1003 576 L 960 575 L 960 576 L 955 576 L 954 578 L 950 578 L 950 579 L 940 578 L 939 572 L 938 572 L 939 567 L 938 567 L 938 557 L 937 557 L 937 550 L 938 550 L 938 545 L 939 545 L 938 530 L 937 530 L 936 524 L 933 520 L 933 516 L 932 516 L 931 510 L 930 510 L 929 504 L 928 504 L 927 500 L 925 499 L 924 493 L 921 490 L 919 481 L 916 478 L 915 467 L 910 460 Z" fill="#C87171" fill-opacity="0.46" fill-rule="evenodd" stroke="#1f2933" stroke-width="0.9" vector-effect="non-scaling-stroke"/>
  <path d="M 538 496 L 540 495 L 540 493 L 544 489 L 548 488 L 549 486 L 551 486 L 555 483 L 555 479 L 560 471 L 560 468 L 562 465 L 562 459 L 565 455 L 565 452 L 567 451 L 567 448 L 571 445 L 571 442 L 575 438 L 578 438 L 579 440 L 583 440 L 583 441 L 585 440 L 587 442 L 597 443 L 597 444 L 601 444 L 601 443 L 602 444 L 604 444 L 604 443 L 611 443 L 611 444 L 638 443 L 637 450 L 634 452 L 634 456 L 632 459 L 632 465 L 634 466 L 636 474 L 639 477 L 639 484 L 638 484 L 638 487 L 637 487 L 636 492 L 635 492 L 635 501 L 636 501 L 638 511 L 639 511 L 638 524 L 635 524 L 635 525 L 594 526 L 592 528 L 588 528 L 586 530 L 583 530 L 582 532 L 576 533 L 568 541 L 566 541 L 564 544 L 560 545 L 555 550 L 552 550 L 552 546 L 550 545 L 549 538 L 545 534 L 542 523 L 540 521 L 539 511 L 538 511 Z" fill="#C8C25D" fill-opacity="0.46" fill-rule="evenodd" stroke="#1f2933" stroke-width="0.9" vector-effect="non-scaling-stroke"/>
  <path d="M 553 550 L 558 548 L 560 545 L 564 544 L 566 541 L 568 541 L 576 533 L 582 532 L 583 530 L 586 530 L 588 528 L 592 528 L 594 526 L 635 525 L 635 524 L 640 524 L 643 527 L 650 528 L 655 533 L 659 534 L 663 539 L 669 541 L 676 548 L 678 548 L 678 551 L 674 554 L 674 556 L 672 557 L 672 559 L 670 561 L 670 565 L 669 565 L 669 568 L 667 570 L 667 573 L 665 574 L 664 579 L 660 582 L 659 585 L 657 585 L 653 590 L 651 590 L 647 594 L 645 599 L 642 601 L 642 605 L 639 604 L 638 602 L 632 600 L 630 597 L 625 596 L 622 593 L 611 590 L 609 587 L 604 587 L 601 584 L 598 584 L 598 583 L 591 581 L 589 579 L 578 577 L 578 576 L 573 575 L 571 573 L 563 572 L 561 569 L 559 569 L 560 565 L 557 563 L 556 556 L 555 556 L 555 553 Z" fill="#D6D064" fill-opacity="0.46" fill-rule="evenodd" stroke="#1f2933" stroke-width="0.9" vector-effect="non-scaling-stroke"/>
  <path d="M 632 459 L 634 456 L 634 452 L 637 450 L 638 443 L 663 444 L 664 442 L 665 443 L 669 443 L 669 442 L 670 443 L 706 442 L 708 444 L 721 446 L 722 448 L 727 449 L 732 454 L 732 456 L 736 462 L 739 479 L 740 479 L 740 482 L 743 486 L 743 490 L 744 490 L 744 515 L 746 518 L 746 524 L 747 524 L 748 530 L 750 532 L 750 535 L 752 536 L 752 539 L 761 548 L 765 558 L 770 562 L 766 563 L 763 566 L 758 566 L 758 567 L 755 567 L 755 568 L 750 569 L 750 570 L 726 570 L 726 569 L 722 569 L 722 568 L 715 568 L 713 566 L 710 566 L 707 563 L 704 563 L 703 561 L 699 561 L 699 560 L 693 558 L 692 556 L 690 556 L 686 552 L 682 551 L 681 549 L 676 548 L 672 543 L 663 539 L 659 534 L 655 533 L 650 528 L 643 527 L 640 524 L 638 524 L 639 511 L 638 511 L 638 507 L 637 507 L 637 504 L 635 501 L 635 492 L 636 492 L 636 489 L 637 489 L 638 484 L 639 484 L 639 477 L 636 474 L 634 466 L 632 465 Z" fill="#E4DD6A" fill-opacity="0.46" fill-rule="evenodd" stroke="#1f2933" stroke-width="0.9" vector-effect="non-scaling-stroke"/>
  <path d="M 642 601 L 645 599 L 647 594 L 651 590 L 653 590 L 657 585 L 659 585 L 660 582 L 664 579 L 665 574 L 667 573 L 667 570 L 669 568 L 670 561 L 671 561 L 672 557 L 678 551 L 678 549 L 681 549 L 682 551 L 686 552 L 687 554 L 689 554 L 690 556 L 692 556 L 693 558 L 695 558 L 699 561 L 703 561 L 704 563 L 707 563 L 710 566 L 713 566 L 715 568 L 722 568 L 722 569 L 726 569 L 726 570 L 750 570 L 750 569 L 753 569 L 753 568 L 758 567 L 758 566 L 763 566 L 768 562 L 771 562 L 774 565 L 775 569 L 780 574 L 781 578 L 784 580 L 784 582 L 787 584 L 787 586 L 790 588 L 791 592 L 793 593 L 795 600 L 796 600 L 796 605 L 795 605 L 796 612 L 787 621 L 785 621 L 784 623 L 782 623 L 781 625 L 779 625 L 777 628 L 773 629 L 772 631 L 767 630 L 766 632 L 747 632 L 744 630 L 734 631 L 734 630 L 727 630 L 727 629 L 717 629 L 717 628 L 711 628 L 709 626 L 701 626 L 701 625 L 688 625 L 688 624 L 684 625 L 681 623 L 676 623 L 676 622 L 674 623 L 672 621 L 667 621 L 666 619 L 664 619 L 663 617 L 658 615 L 655 611 L 651 611 L 650 609 L 643 606 Z" fill="#ACA750" fill-opacity="0.46" fill-rule="evenodd" stroke="#1f2933" stroke-width="0.9" vector-effect="non-scaling-stroke"/>
  <path d="M 841 593 L 842 593 L 842 577 L 843 577 L 842 572 L 843 572 L 843 569 L 845 568 L 845 566 L 849 562 L 851 562 L 853 560 L 857 560 L 857 559 L 864 559 L 864 560 L 868 560 L 870 562 L 877 562 L 880 564 L 884 564 L 905 578 L 915 577 L 916 579 L 917 578 L 921 579 L 921 578 L 925 578 L 925 577 L 933 578 L 933 579 L 937 579 L 939 577 L 942 579 L 950 579 L 950 578 L 954 578 L 955 576 L 960 576 L 960 575 L 1003 576 L 1003 575 L 1014 574 L 1014 573 L 1019 572 L 1020 580 L 1019 580 L 1018 585 L 1016 587 L 1016 595 L 1021 602 L 1021 612 L 1019 614 L 1019 621 L 1022 625 L 1022 633 L 1023 633 L 1023 636 L 1025 637 L 1025 641 L 1026 641 L 1026 650 L 1024 653 L 1024 669 L 1026 672 L 1026 677 L 1024 677 L 1021 680 L 1015 681 L 1015 682 L 1008 682 L 1008 683 L 996 686 L 996 687 L 990 689 L 989 691 L 984 692 L 980 697 L 975 698 L 973 701 L 962 705 L 960 700 L 959 700 L 959 697 L 957 696 L 957 694 L 953 690 L 952 683 L 949 681 L 949 679 L 946 677 L 946 675 L 943 672 L 938 671 L 935 668 L 924 665 L 924 664 L 917 662 L 917 661 L 913 660 L 912 658 L 908 658 L 908 657 L 894 657 L 894 656 L 890 656 L 887 654 L 875 654 L 875 653 L 871 653 L 871 652 L 852 651 L 852 649 L 853 649 L 852 640 L 854 639 L 853 638 L 852 624 L 850 623 L 849 618 L 844 613 L 844 609 L 843 609 L 844 601 L 841 598 Z" fill="#9072B0" fill-opacity="0.46" fill-rule="evenodd" stroke="#1f2933" stroke-width="0.9" vector-effect="non-scaling-stroke"/>
  <path d="M 1016 587 L 1017 587 L 1018 582 L 1020 580 L 1019 571 L 1021 571 L 1021 570 L 1026 570 L 1026 571 L 1029 571 L 1029 570 L 1031 570 L 1031 571 L 1032 570 L 1041 570 L 1041 571 L 1044 571 L 1044 570 L 1048 570 L 1048 571 L 1051 571 L 1051 570 L 1073 570 L 1073 569 L 1076 569 L 1084 564 L 1088 564 L 1089 562 L 1092 562 L 1093 560 L 1097 560 L 1100 556 L 1110 552 L 1112 549 L 1117 549 L 1118 547 L 1123 547 L 1124 549 L 1130 548 L 1130 547 L 1136 548 L 1136 549 L 1139 548 L 1142 551 L 1146 552 L 1147 554 L 1150 554 L 1153 556 L 1163 556 L 1163 557 L 1164 556 L 1171 556 L 1171 555 L 1242 553 L 1242 678 L 1228 677 L 1228 676 L 1223 675 L 1221 673 L 1202 673 L 1200 671 L 1189 669 L 1189 668 L 1183 667 L 1183 666 L 1166 665 L 1156 656 L 1147 656 L 1145 654 L 1137 654 L 1137 653 L 1131 654 L 1131 653 L 1126 653 L 1126 652 L 1120 653 L 1120 654 L 1117 654 L 1117 655 L 1114 655 L 1114 656 L 1108 657 L 1108 658 L 1099 658 L 1097 660 L 1092 660 L 1091 662 L 1088 662 L 1082 666 L 1069 666 L 1069 667 L 1058 668 L 1058 669 L 1056 669 L 1048 674 L 1044 674 L 1041 677 L 1030 678 L 1030 677 L 1026 676 L 1026 672 L 1024 669 L 1024 653 L 1026 650 L 1026 641 L 1025 641 L 1025 637 L 1023 636 L 1023 633 L 1022 633 L 1022 625 L 1019 621 L 1019 614 L 1021 612 L 1021 602 L 1016 595 Z" fill="#9B7BBD" fill-opacity="0.46" fill-rule="evenodd" stroke="#1f2933" stroke-width="0.9" vector-effect="non-scaling-stroke"/>
  <path d="M 852 651 L 871 652 L 871 653 L 875 653 L 875 654 L 887 654 L 887 655 L 894 656 L 894 657 L 912 658 L 913 660 L 920 662 L 924 665 L 930 666 L 932 668 L 935 668 L 936 670 L 941 671 L 946 675 L 946 677 L 952 683 L 953 690 L 957 694 L 957 696 L 959 697 L 959 700 L 962 704 L 962 706 L 961 706 L 962 713 L 970 721 L 972 728 L 975 730 L 975 732 L 977 734 L 977 738 L 979 740 L 979 743 L 981 744 L 980 760 L 981 760 L 982 764 L 987 768 L 987 770 L 990 774 L 991 780 L 992 780 L 992 784 L 993 784 L 992 789 L 991 789 L 991 795 L 992 795 L 991 807 L 992 807 L 993 816 L 866 816 L 864 797 L 862 796 L 862 786 L 861 786 L 861 776 L 862 776 L 863 768 L 862 768 L 862 759 L 861 759 L 861 753 L 862 753 L 861 741 L 862 740 L 861 740 L 861 732 L 860 732 L 860 725 L 861 725 L 860 711 L 859 711 L 860 703 L 859 703 L 859 697 L 858 697 L 858 690 L 856 689 L 855 680 L 854 680 L 853 652 Z" fill="#A684CA" fill-opacity="0.46" fill-rule="evenodd" stroke="#1f2933" stroke-width="0.9" vector-effect="non-scaling-stroke"/>
  <path d="M 961 706 L 968 703 L 968 702 L 973 701 L 975 698 L 980 697 L 984 692 L 987 692 L 996 686 L 999 686 L 999 685 L 1002 685 L 1002 684 L 1005 684 L 1008 682 L 1015 682 L 1015 681 L 1023 679 L 1026 676 L 1028 676 L 1030 678 L 1038 678 L 1038 677 L 1041 677 L 1044 674 L 1048 674 L 1048 673 L 1050 673 L 1058 668 L 1069 667 L 1069 666 L 1082 666 L 1088 662 L 1091 662 L 1092 660 L 1097 660 L 1099 658 L 1108 658 L 1108 657 L 1112 657 L 1114 655 L 1117 655 L 1120 653 L 1125 653 L 1125 652 L 1131 653 L 1131 654 L 1137 653 L 1137 654 L 1145 654 L 1147 656 L 1156 656 L 1166 665 L 1183 666 L 1183 667 L 1187 667 L 1189 669 L 1200 671 L 1202 673 L 1221 673 L 1221 674 L 1226 675 L 1228 677 L 1242 678 L 1242 816 L 993 816 L 992 807 L 991 807 L 991 802 L 992 802 L 991 789 L 993 786 L 992 780 L 991 780 L 991 777 L 990 777 L 990 774 L 989 774 L 987 768 L 982 764 L 982 762 L 980 760 L 981 744 L 979 743 L 979 740 L 977 738 L 977 734 L 976 734 L 975 730 L 972 728 L 970 721 L 962 713 Z" fill="#B18CD7" fill-opacity="0.46" fill-rule="evenodd" stroke="#1f2933" stroke-width="0.9" vector-effect="non-scaling-stroke"/>
  <path d="M 337 581 L 342 576 L 344 576 L 346 574 L 348 567 L 350 566 L 350 563 L 352 562 L 350 559 L 354 556 L 354 554 L 358 550 L 360 550 L 363 546 L 365 546 L 369 542 L 372 542 L 372 541 L 376 542 L 376 541 L 385 540 L 385 539 L 398 539 L 402 549 L 408 550 L 410 552 L 416 552 L 418 554 L 422 553 L 424 551 L 431 551 L 435 546 L 444 546 L 452 538 L 458 539 L 459 541 L 461 541 L 465 544 L 467 544 L 467 543 L 471 543 L 471 544 L 483 543 L 490 548 L 504 547 L 508 551 L 513 551 L 516 554 L 516 556 L 522 558 L 527 564 L 531 564 L 531 565 L 534 565 L 534 566 L 540 567 L 540 568 L 544 568 L 544 567 L 547 567 L 549 569 L 559 568 L 563 572 L 570 573 L 570 578 L 567 581 L 565 581 L 564 583 L 561 583 L 560 585 L 553 585 L 553 586 L 546 588 L 540 592 L 529 593 L 526 595 L 521 593 L 520 591 L 514 590 L 514 591 L 495 591 L 495 592 L 492 591 L 492 592 L 484 592 L 484 593 L 477 593 L 477 594 L 456 594 L 456 595 L 446 595 L 446 596 L 440 596 L 440 597 L 434 597 L 434 598 L 423 598 L 423 597 L 420 597 L 420 596 L 415 595 L 415 594 L 407 594 L 406 593 L 406 594 L 400 596 L 399 594 L 397 594 L 396 592 L 393 592 L 393 591 L 381 590 L 374 595 L 365 596 L 361 599 L 350 601 L 350 602 L 344 600 L 344 592 L 343 592 L 342 588 L 337 584 Z" fill="#6C91B8" fill-opacity="0.46" fill-rule="evenodd" stroke="#1f2933" stroke-width="0.9" vector-effect="non-scaling-stroke"/>
  <path d="M 279 743 L 285 737 L 292 738 L 299 731 L 308 731 L 309 729 L 311 729 L 311 727 L 314 725 L 314 723 L 316 721 L 316 718 L 320 714 L 320 710 L 322 708 L 324 708 L 329 703 L 329 701 L 335 696 L 337 689 L 338 689 L 338 680 L 342 677 L 342 675 L 344 674 L 345 670 L 348 667 L 349 661 L 348 661 L 347 655 L 344 653 L 344 637 L 343 637 L 343 632 L 342 632 L 342 618 L 343 618 L 344 614 L 338 608 L 338 605 L 340 605 L 343 602 L 343 600 L 346 600 L 348 602 L 358 600 L 358 599 L 361 599 L 365 596 L 374 595 L 381 590 L 389 590 L 389 591 L 393 591 L 393 592 L 396 592 L 397 594 L 399 594 L 402 598 L 405 610 L 410 615 L 410 617 L 411 617 L 411 619 L 412 619 L 412 621 L 417 629 L 418 636 L 419 636 L 419 669 L 420 669 L 420 673 L 422 675 L 422 685 L 423 685 L 422 698 L 423 698 L 423 702 L 424 702 L 424 719 L 422 721 L 422 731 L 420 732 L 420 734 L 418 735 L 417 733 L 413 733 L 410 729 L 407 729 L 407 728 L 405 728 L 402 731 L 398 731 L 392 724 L 381 725 L 376 721 L 376 719 L 373 717 L 373 715 L 369 714 L 368 716 L 366 716 L 363 719 L 361 719 L 361 718 L 355 719 L 340 733 L 329 734 L 323 741 L 321 741 L 309 753 L 306 753 L 306 752 L 283 752 L 280 748 Z" fill="#749DC7" fill-opacity="0.46" fill-rule="evenodd" stroke="#1f2933" stroke-width="0.9" vector-effect="non-scaling-stroke"/>
  <path d="M 401 596 L 407 593 L 407 594 L 415 594 L 415 595 L 418 595 L 418 596 L 423 597 L 423 598 L 434 598 L 434 597 L 440 597 L 440 596 L 446 596 L 446 595 L 477 594 L 477 593 L 492 592 L 492 591 L 495 592 L 495 591 L 514 591 L 514 590 L 520 591 L 521 593 L 525 594 L 526 596 L 523 600 L 523 603 L 521 605 L 520 612 L 519 612 L 519 614 L 520 614 L 520 618 L 519 618 L 520 636 L 519 636 L 519 640 L 518 640 L 518 654 L 519 654 L 519 658 L 521 660 L 521 663 L 523 665 L 523 676 L 522 676 L 521 680 L 519 681 L 519 683 L 517 684 L 517 683 L 512 682 L 509 684 L 504 684 L 502 686 L 499 686 L 495 691 L 493 691 L 492 693 L 489 693 L 489 694 L 476 694 L 472 699 L 467 700 L 463 703 L 462 714 L 460 715 L 460 717 L 455 719 L 455 720 L 449 721 L 449 723 L 445 726 L 436 726 L 433 723 L 431 723 L 426 717 L 424 717 L 424 702 L 423 702 L 423 698 L 422 698 L 422 694 L 423 694 L 422 675 L 421 675 L 420 669 L 419 669 L 419 636 L 418 636 L 417 629 L 416 629 L 410 615 L 405 610 Z" fill="#7DA9D6" fill-opacity="0.46" fill-rule="evenodd" stroke="#1f2933" stroke-width="0.9" vector-effect="non-scaling-stroke"/>
  <path d="M 516 687 L 523 676 L 523 665 L 521 663 L 521 660 L 520 660 L 519 654 L 518 654 L 518 640 L 519 640 L 519 636 L 520 636 L 520 622 L 519 622 L 520 614 L 519 614 L 519 612 L 520 612 L 520 608 L 521 608 L 521 605 L 523 603 L 523 600 L 524 600 L 526 594 L 534 593 L 534 592 L 537 593 L 537 592 L 540 592 L 540 591 L 542 591 L 546 588 L 549 588 L 553 585 L 560 585 L 561 583 L 564 583 L 565 581 L 567 581 L 570 578 L 570 573 L 571 573 L 571 574 L 576 575 L 578 577 L 582 577 L 582 578 L 586 578 L 586 579 L 589 579 L 591 581 L 594 581 L 598 584 L 601 584 L 604 587 L 609 587 L 611 590 L 622 593 L 625 596 L 630 597 L 632 600 L 634 600 L 634 601 L 638 602 L 639 604 L 645 606 L 646 608 L 650 609 L 651 611 L 655 611 L 658 615 L 660 615 L 662 617 L 655 624 L 648 625 L 648 626 L 645 626 L 643 628 L 639 628 L 639 629 L 633 630 L 633 631 L 621 632 L 610 639 L 610 641 L 607 645 L 607 650 L 606 650 L 606 661 L 607 661 L 607 687 L 606 688 L 585 688 L 585 687 L 581 687 L 581 686 L 577 685 L 576 683 L 569 681 L 569 680 L 561 680 L 561 681 L 558 681 L 557 683 L 554 683 L 554 684 L 540 684 L 540 683 L 538 683 L 534 686 L 534 688 L 531 691 L 523 692 L 521 694 L 516 692 Z" fill="#86B5E5" fill-opacity="0.46" fill-rule="evenodd" stroke="#1f2933" stroke-width="0.9" vector-effect="non-scaling-stroke"/>
  <path d="M 587 713 L 588 713 L 588 708 L 590 706 L 594 706 L 599 710 L 603 710 L 604 707 L 606 706 L 606 703 L 607 703 L 608 698 L 610 696 L 610 692 L 608 691 L 608 689 L 606 689 L 606 687 L 607 687 L 606 650 L 607 650 L 607 645 L 608 645 L 610 639 L 621 632 L 633 631 L 633 630 L 637 630 L 639 628 L 643 628 L 643 627 L 648 626 L 648 625 L 655 624 L 662 617 L 664 619 L 666 619 L 667 621 L 672 621 L 674 623 L 675 622 L 681 623 L 684 625 L 687 625 L 687 624 L 688 625 L 701 625 L 701 626 L 709 626 L 711 628 L 717 628 L 717 629 L 727 629 L 727 630 L 734 630 L 734 631 L 744 630 L 747 632 L 756 632 L 756 639 L 755 639 L 754 646 L 751 650 L 751 654 L 749 656 L 749 662 L 752 664 L 760 665 L 764 669 L 764 671 L 769 676 L 771 676 L 774 680 L 777 680 L 777 681 L 785 684 L 785 687 L 781 690 L 777 699 L 766 709 L 766 711 L 759 718 L 755 719 L 754 721 L 752 721 L 749 725 L 747 725 L 744 728 L 736 728 L 736 727 L 732 727 L 728 724 L 723 724 L 723 723 L 700 723 L 700 724 L 696 724 L 696 725 L 683 725 L 683 726 L 675 727 L 675 728 L 672 728 L 668 732 L 663 730 L 663 729 L 660 729 L 652 736 L 652 738 L 651 738 L 652 741 L 651 741 L 650 745 L 647 745 L 647 744 L 641 742 L 632 751 L 633 756 L 635 757 L 635 762 L 632 766 L 632 774 L 630 775 L 629 779 L 627 779 L 627 780 L 620 779 L 617 763 L 613 760 L 609 760 L 606 758 L 607 754 L 606 754 L 605 750 L 603 749 L 602 745 L 598 742 L 598 737 L 597 737 L 598 731 L 600 730 L 601 725 L 599 722 L 595 722 L 592 725 L 588 724 L 587 723 L 587 720 L 588 720 Z" fill="#8FC1F4" fill-opacity="0.46" fill-rule="evenodd" stroke="#1f2933" stroke-width="0.9" vector-effect="non-scaling-stroke"/>
  <path d="M 665 743 L 666 743 L 668 731 L 670 731 L 672 728 L 683 726 L 683 725 L 696 725 L 696 724 L 700 724 L 700 723 L 723 723 L 723 724 L 728 724 L 728 725 L 730 725 L 732 727 L 736 727 L 736 728 L 744 728 L 747 725 L 749 725 L 752 721 L 759 718 L 766 711 L 766 709 L 777 699 L 781 690 L 785 687 L 785 684 L 787 684 L 787 683 L 791 683 L 791 684 L 794 684 L 797 686 L 810 688 L 810 689 L 824 689 L 824 688 L 828 688 L 828 687 L 841 688 L 844 686 L 846 686 L 846 687 L 856 686 L 856 689 L 858 690 L 858 697 L 859 697 L 859 703 L 860 703 L 860 705 L 859 705 L 860 720 L 861 720 L 860 732 L 861 732 L 861 740 L 862 740 L 861 741 L 861 751 L 862 751 L 861 759 L 862 759 L 862 768 L 863 768 L 862 776 L 861 776 L 861 786 L 862 786 L 862 796 L 864 797 L 866 816 L 686 816 L 686 812 L 680 806 L 679 800 L 680 800 L 680 797 L 685 792 L 689 791 L 691 788 L 695 787 L 698 784 L 698 782 L 700 780 L 698 767 L 697 767 L 697 764 L 694 761 L 693 757 L 691 756 L 691 754 L 687 750 L 685 750 L 684 748 L 680 748 L 680 747 L 668 748 L 665 745 Z" fill="#6C91B8" fill-opacity="0.46" fill-rule="evenodd" stroke="#1f2933" stroke-width="0.9" vector-effect="non-scaling-stroke"/>
  <path d="M 749 656 L 751 654 L 751 650 L 752 650 L 754 643 L 755 643 L 756 632 L 766 632 L 767 630 L 772 631 L 773 629 L 777 628 L 779 625 L 781 625 L 782 623 L 787 621 L 796 611 L 803 610 L 807 606 L 817 604 L 818 602 L 823 601 L 825 599 L 828 599 L 830 597 L 837 598 L 838 596 L 841 596 L 842 600 L 844 601 L 844 607 L 843 607 L 844 613 L 849 618 L 850 623 L 852 624 L 852 630 L 853 630 L 853 638 L 854 639 L 852 640 L 852 643 L 853 643 L 852 652 L 853 652 L 853 672 L 854 672 L 855 686 L 852 686 L 852 687 L 844 686 L 841 688 L 828 687 L 828 688 L 824 688 L 824 689 L 810 689 L 810 688 L 797 686 L 797 685 L 794 685 L 791 683 L 783 684 L 777 680 L 774 680 L 771 676 L 769 676 L 760 665 L 750 663 Z" fill="#749DC7" fill-opacity="0.46" fill-rule="evenodd" stroke="#1f2933" stroke-width="0.9" vector-effect="non-scaling-stroke"/>
</svg>
